<?xml version="1.0" encoding="UTF-8" standalone="no"?>
<!DOCTYPE svg PUBLIC "-//W3C//DTD SVG 1.1//EN"
 "http://www.w3.org/Graphics/SVG/1.1/DTD/svg11.dtd">
<!-- Generated by graphviz version 2.43.0 (0)
 -->
<!-- Title: atlas_context Pages: 1 -->
<svg width="340pt" height="915pt"
 viewBox="0.00 0.00 340.00 915.00" xmlns="http://www.w3.org/2000/svg" xmlns:xlink="http://www.w3.org/1999/xlink">
<g id="graph0" class="graph" transform="scale(1 1) rotate(0) translate(4 911)">
<title>atlas_context</title>
<!-- Node1 -->
<g id="Node000001" class="node">
<title>Node1</title>
<g id="a_Node000001"><a xlink:title=" ">
<polygon fill="#999999" stroke="transparent" points="203,-49 61,-49 61,0 203,0 203,-49"/>
<text text-anchor="start" x="98.5" y="-36.5" font-family="Helvetica,sans-Serif" font-size="10.00">atlas_context</text>
<text text-anchor="start" x="130" y="-21.5" font-family="Helvetica,sans-Serif" font-size="10.00"> </text>
<text text-anchor="start" x="65" y="-6.5" font-family="Helvetica,sans-Serif" font-size="10.00">+</text>
<text text-anchor="start" x="78" y="-6.5" font-family="Helvetica,sans-Serif" font-size="10.00">initialize_atlas_context()</text>
<polygon fill="#666666" stroke="#666666" points="61,-31.5 61,-31.5 203,-31.5 203,-31.5 61,-31.5"/>
<polygon fill="#666666" stroke="#666666" points="61,-16.5 61,-16.5 203,-16.5 203,-16.5 61,-16.5"/>
<polygon fill="none" stroke="#666666" points="61,0 61,-49 203,-49 203,0 61,0"/>
</a>
</g>
</g>
<!-- Node2 -->
<g id="Node000002" class="node">
<title>Node2</title>
<g id="a_Node000002"><a xlink:href="structuvgv3cbitstream_1_1AtlasContext.html" target="_top" xlink:title=" ">
<polygon fill="white" stroke="transparent" points="213,-195 51,-195 51,-86 213,-86 213,-195"/>
<text text-anchor="start" x="56" y="-182.5" font-family="Helvetica,sans-Serif" font-size="10.00">uvgv3cbitstream::AtlasContext</text>
<text text-anchor="start" x="68" y="-167.5" font-family="Helvetica,sans-Serif" font-size="10.00">+</text>
<text text-anchor="start" x="94" y="-167.5" font-family="Helvetica,sans-Serif" font-size="10.00">atlas_data_</text>
<text text-anchor="start" x="68" y="-152.5" font-family="Helvetica,sans-Serif" font-size="10.00">+</text>
<text text-anchor="start" x="94" y="-152.5" font-family="Helvetica,sans-Serif" font-size="10.00">gof_id_</text>
<text text-anchor="start" x="68" y="-137.5" font-family="Helvetica,sans-Serif" font-size="10.00">+</text>
<text text-anchor="start" x="94" y="-137.5" font-family="Helvetica,sans-Serif" font-size="10.00">atlas_sub_size_</text>
<text text-anchor="start" x="68" y="-122.5" font-family="Helvetica,sans-Serif" font-size="10.00">+</text>
<text text-anchor="start" x="94" y="-122.5" font-family="Helvetica,sans-Serif" font-size="10.00">ad_nal_sizes_</text>
<text text-anchor="start" x="68" y="-107.5" font-family="Helvetica,sans-Serif" font-size="10.00">+</text>
<text text-anchor="start" x="94" y="-107.5" font-family="Helvetica,sans-Serif" font-size="10.00">ad_nal_precision_</text>
<text text-anchor="start" x="130" y="-92.5" font-family="Helvetica,sans-Serif" font-size="10.00"> </text>
<polygon fill="#666666" stroke="#666666" points="51,-177.5 51,-177.5 213,-177.5 213,-177.5 51,-177.5"/>
<polygon fill="#666666" stroke="#666666" points="51,-102.5 51,-102.5 92,-102.5 92,-102.5 51,-102.5"/>
<polygon fill="#666666" stroke="#666666" points="92,-102.5 92,-102.5 213,-102.5 213,-102.5 92,-102.5"/>
<polygon fill="none" stroke="#666666" points="51,-86 51,-195 213,-195 213,-86 51,-86"/>
</a>
</g>
</g>
<!-- Node2&#45;&gt;Node1 -->
<g id="edge1_Node000001_Node000002" class="edge">
<title>Node2&#45;&gt;Node1</title>
<g id="a_edge1_Node000001_Node000002"><a xlink:title=" ">
<path fill="none" stroke="#63b8ff" d="M132,-75.83C132,-66.28 132,-56.97 132,-49.02"/>
<polygon fill="none" stroke="#63b8ff" points="128.5,-75.84 132,-85.84 135.5,-75.84 128.5,-75.84"/>
</a>
</g>
</g>
<!-- Node3 -->
<g id="Node000003" class="node">
<title>Node3</title>
<g id="a_Node000003"><a xlink:href="structuvgv3cbitstream_1_1atlas__sequence__parameter__set.html" target="_top" xlink:title=" ">
<polygon fill="white" stroke="transparent" points="146,-540 0,-540 0,-242 146,-242 146,-540"/>
<text text-anchor="start" x="8.5" y="-528" font-family="Helvetica,sans-Serif" font-size="10.00">uvgv3cbitstream::atlas</text>
<text text-anchor="start" x="8.5" y="-517" font-family="Helvetica,sans-Serif" font-size="10.00">_sequence_parameter_set</text>
<text text-anchor="start" x="4" y="-502" font-family="Helvetica,sans-Serif" font-size="10.00">+</text>
<text text-anchor="start" x="17" y="-502" font-family="Helvetica,sans-Serif" font-size="10.00">asps_atlas_sequence</text>
<text text-anchor="start" x="17" y="-491" font-family="Helvetica,sans-Serif" font-size="10.00">_parameter_set_id</text>
<text text-anchor="start" x="4" y="-476" font-family="Helvetica,sans-Serif" font-size="10.00">+</text>
<text text-anchor="start" x="17" y="-476" font-family="Helvetica,sans-Serif" font-size="10.00">asps_frame_width</text>
<text text-anchor="start" x="4" y="-461" font-family="Helvetica,sans-Serif" font-size="10.00">+</text>
<text text-anchor="start" x="17" y="-461" font-family="Helvetica,sans-Serif" font-size="10.00">asps_frame_height</text>
<text text-anchor="start" x="4" y="-446" font-family="Helvetica,sans-Serif" font-size="10.00">+</text>
<text text-anchor="start" x="17" y="-446" font-family="Helvetica,sans-Serif" font-size="10.00">asps_geometry_3d_bit</text>
<text text-anchor="start" x="17" y="-435" font-family="Helvetica,sans-Serif" font-size="10.00">_depth_minus1</text>
<text text-anchor="start" x="4" y="-420" font-family="Helvetica,sans-Serif" font-size="10.00">+</text>
<text text-anchor="start" x="17" y="-420" font-family="Helvetica,sans-Serif" font-size="10.00">asps_geometry_2d_bit</text>
<text text-anchor="start" x="17" y="-409" font-family="Helvetica,sans-Serif" font-size="10.00">_depth_minus1</text>
<text text-anchor="start" x="4" y="-394" font-family="Helvetica,sans-Serif" font-size="10.00">+</text>
<text text-anchor="start" x="17" y="-394" font-family="Helvetica,sans-Serif" font-size="10.00">asps_log2_max_atlas</text>
<text text-anchor="start" x="17" y="-383" font-family="Helvetica,sans-Serif" font-size="10.00">_frame_order_cnt_lsb</text>
<text text-anchor="start" x="17" y="-372" font-family="Helvetica,sans-Serif" font-size="10.00">_minus4</text>
<text text-anchor="start" x="4" y="-357" font-family="Helvetica,sans-Serif" font-size="10.00">+</text>
<text text-anchor="start" x="17" y="-357" font-family="Helvetica,sans-Serif" font-size="10.00">asps_max_dec_atlas</text>
<text text-anchor="start" x="17" y="-346" font-family="Helvetica,sans-Serif" font-size="10.00">_frame_buffering_minus1</text>
<text text-anchor="start" x="4" y="-331" font-family="Helvetica,sans-Serif" font-size="10.00">+</text>
<text text-anchor="start" x="17" y="-331" font-family="Helvetica,sans-Serif" font-size="10.00">asps_long_term_ref</text>
<text text-anchor="start" x="17" y="-320" font-family="Helvetica,sans-Serif" font-size="10.00">_atlas_frames_flag</text>
<text text-anchor="start" x="4" y="-305" font-family="Helvetica,sans-Serif" font-size="10.00">+</text>
<text text-anchor="start" x="17" y="-305" font-family="Helvetica,sans-Serif" font-size="10.00">asps_num_ref_atlas</text>
<text text-anchor="start" x="17" y="-294" font-family="Helvetica,sans-Serif" font-size="10.00">_frame_lists_in_asps</text>
<text text-anchor="start" x="4" y="-279" font-family="Helvetica,sans-Serif" font-size="10.00">+</text>
<text text-anchor="start" x="17" y="-279" font-family="Helvetica,sans-Serif" font-size="10.00">ref_lists</text>
<text text-anchor="start" x="17" y="-264" font-family="Helvetica,sans-Serif" font-size="10.00">and 23 more...</text>
<text text-anchor="start" x="71" y="-249" font-family="Helvetica,sans-Serif" font-size="10.00"> </text>
<polygon fill="#666666" stroke="#666666" points="0,-512 0,-512 146,-512 146,-512 0,-512"/>
<polygon fill="#666666" stroke="#666666" points="0,-259 0,-259 15,-259 15,-259 0,-259"/>
<polygon fill="#666666" stroke="#666666" points="15,-259 15,-259 146,-259 146,-259 15,-259"/>
<polygon fill="none" stroke="#666666" points="0,-242 0,-540 146,-540 146,-242 0,-242"/>
</a>
</g>
</g>
<!-- Node3&#45;&gt;Node2 -->
<g id="edge2_Node000002_Node000003" class="edge">
<title>Node3&#45;&gt;Node2</title>
<g id="a_edge2_Node000002_Node000003"><a xlink:title=" ">
<path fill="none" stroke="#63b8ff" d="M108.17,-241.86C111.04,-229.78 113.84,-218.01 116.44,-207.03"/>
<polygon fill="none" stroke="#63b8ff" points="116.53,-206.68 114.02,-199.91 119.3,-195 121.8,-201.76 116.53,-206.68"/>
</a>
</g>
<text text-anchor="middle" x="134" y="-216" font-family="Helvetica,sans-Serif" font-size="10.00" fill="grey"> +asps_</text>
</g>
<!-- Node4 -->
<g id="Node000004" class="node">
<title>Node4</title>
<g id="a_Node000004"><a xlink:href="structuvgv3cbitstream_1_1atlas__frame__parameter__set.html" target="_top" xlink:title=" ">
<polygon fill="white" stroke="transparent" points="332,-534.5 164,-534.5 164,-247.5 332,-247.5 332,-534.5"/>
<text text-anchor="start" x="191.5" y="-522" font-family="Helvetica,sans-Serif" font-size="10.00">uvgv3cbitstream::atlas</text>
<text text-anchor="start" x="192" y="-511" font-family="Helvetica,sans-Serif" font-size="10.00">_frame_parameter_set</text>
<text text-anchor="start" x="168" y="-496" font-family="Helvetica,sans-Serif" font-size="10.00">+</text>
<text text-anchor="start" x="181" y="-496" font-family="Helvetica,sans-Serif" font-size="10.00">afps_atlas_frame_parameter</text>
<text text-anchor="start" x="181" y="-485" font-family="Helvetica,sans-Serif" font-size="10.00">_set_id</text>
<text text-anchor="start" x="168" y="-470" font-family="Helvetica,sans-Serif" font-size="10.00">+</text>
<text text-anchor="start" x="181" y="-470" font-family="Helvetica,sans-Serif" font-size="10.00">afps_atlas_sequence</text>
<text text-anchor="start" x="181" y="-459" font-family="Helvetica,sans-Serif" font-size="10.00">_parameter_set_id</text>
<text text-anchor="start" x="168" y="-444" font-family="Helvetica,sans-Serif" font-size="10.00">+</text>
<text text-anchor="start" x="181" y="-444" font-family="Helvetica,sans-Serif" font-size="10.00">afps_output_flag_present_flag</text>
<text text-anchor="start" x="168" y="-429" font-family="Helvetica,sans-Serif" font-size="10.00">+</text>
<text text-anchor="start" x="181" y="-429" font-family="Helvetica,sans-Serif" font-size="10.00">afps_num_ref_idx_default</text>
<text text-anchor="start" x="181" y="-418" font-family="Helvetica,sans-Serif" font-size="10.00">_active_minus1</text>
<text text-anchor="start" x="168" y="-403" font-family="Helvetica,sans-Serif" font-size="10.00">+</text>
<text text-anchor="start" x="181" y="-403" font-family="Helvetica,sans-Serif" font-size="10.00">afps_additional_lt</text>
<text text-anchor="start" x="181" y="-392" font-family="Helvetica,sans-Serif" font-size="10.00">_afoc_lsb_len</text>
<text text-anchor="start" x="168" y="-377" font-family="Helvetica,sans-Serif" font-size="10.00">+</text>
<text text-anchor="start" x="181" y="-377" font-family="Helvetica,sans-Serif" font-size="10.00">afps_lod_mode_enabled_flag</text>
<text text-anchor="start" x="168" y="-362" font-family="Helvetica,sans-Serif" font-size="10.00">+</text>
<text text-anchor="start" x="181" y="-362" font-family="Helvetica,sans-Serif" font-size="10.00">afps_raw_3d_offset</text>
<text text-anchor="start" x="181" y="-351" font-family="Helvetica,sans-Serif" font-size="10.00">_bit_count_explicit</text>
<text text-anchor="start" x="181" y="-340" font-family="Helvetica,sans-Serif" font-size="10.00">_mode_flag</text>
<text text-anchor="start" x="168" y="-325" font-family="Helvetica,sans-Serif" font-size="10.00">+</text>
<text text-anchor="start" x="181" y="-325" font-family="Helvetica,sans-Serif" font-size="10.00">afps_extension_present_flag</text>
<text text-anchor="start" x="168" y="-310" font-family="Helvetica,sans-Serif" font-size="10.00">+</text>
<text text-anchor="start" x="181" y="-310" font-family="Helvetica,sans-Serif" font-size="10.00">afps_miv_extension</text>
<text text-anchor="start" x="181" y="-299" font-family="Helvetica,sans-Serif" font-size="10.00">_present_flag</text>
<text text-anchor="start" x="168" y="-284" font-family="Helvetica,sans-Serif" font-size="10.00">+</text>
<text text-anchor="start" x="181" y="-284" font-family="Helvetica,sans-Serif" font-size="10.00">afps_extension_7bits</text>
<text text-anchor="start" x="168" y="-269" font-family="Helvetica,sans-Serif" font-size="10.00">+</text>
<text text-anchor="start" x="181" y="-269" font-family="Helvetica,sans-Serif" font-size="10.00">afps_extension_data_flag</text>
<text text-anchor="start" x="246" y="-254" font-family="Helvetica,sans-Serif" font-size="10.00"> </text>
<polygon fill="#666666" stroke="#666666" points="164,-506 164,-506 332,-506 332,-506 164,-506"/>
<polygon fill="#666666" stroke="#666666" points="164,-264 164,-264 179,-264 179,-264 164,-264"/>
<polygon fill="#666666" stroke="#666666" points="179,-264 179,-264 332,-264 332,-264 179,-264"/>
<polygon fill="none" stroke="#666666" points="164,-247.5 164,-534.5 332,-534.5 332,-247.5 164,-247.5"/>
</a>
</g>
</g>
<!-- Node4&#45;&gt;Node2 -->
<g id="edge3_Node000002_Node000004" class="edge">
<title>Node4&#45;&gt;Node2</title>
<g id="a_edge3_Node000002_Node000004"><a xlink:title=" ">
<path fill="none" stroke="#63b8ff" d="M181.36,-247.25C174.68,-232.94 168.16,-218.97 162.16,-206.11"/>
<polygon fill="none" stroke="#63b8ff" points="162.11,-206 155.95,-202.25 157.03,-195.13 163.19,-198.87 162.11,-206"/>
</a>
</g>
<text text-anchor="middle" x="188" y="-216" font-family="Helvetica,sans-Serif" font-size="10.00" fill="grey"> +afps_</text>
</g>
<!-- Node5 -->
<g id="Node000005" class="node">
<title>Node5</title>
<g id="a_Node000005"><a xlink:href="structuvgv3cbitstream_1_1atlas__frame__tile__information.html" target="_top" xlink:title=" ">
<polygon fill="white" stroke="transparent" points="315,-907 181,-907 181,-587 315,-587 315,-907"/>
<text text-anchor="start" x="189" y="-895" font-family="Helvetica,sans-Serif" font-size="10.00">uvgv3cbitstream::atlas</text>
<text text-anchor="start" x="189" y="-884" font-family="Helvetica,sans-Serif" font-size="10.00">_frame_tile_information</text>
<text text-anchor="start" x="185" y="-869" font-family="Helvetica,sans-Serif" font-size="10.00">+</text>
<text text-anchor="start" x="198" y="-869" font-family="Helvetica,sans-Serif" font-size="10.00">afti_single_tile_in</text>
<text text-anchor="start" x="198" y="-858" font-family="Helvetica,sans-Serif" font-size="10.00">_atlas_frame_flag</text>
<text text-anchor="start" x="185" y="-843" font-family="Helvetica,sans-Serif" font-size="10.00">+</text>
<text text-anchor="start" x="198" y="-843" font-family="Helvetica,sans-Serif" font-size="10.00">afti_uniform_partition</text>
<text text-anchor="start" x="198" y="-832" font-family="Helvetica,sans-Serif" font-size="10.00">_spacing_flag</text>
<text text-anchor="start" x="185" y="-817" font-family="Helvetica,sans-Serif" font-size="10.00">+</text>
<text text-anchor="start" x="198" y="-817" font-family="Helvetica,sans-Serif" font-size="10.00">afti_partition_cols</text>
<text text-anchor="start" x="198" y="-806" font-family="Helvetica,sans-Serif" font-size="10.00">_width_minus1</text>
<text text-anchor="start" x="185" y="-791" font-family="Helvetica,sans-Serif" font-size="10.00">+</text>
<text text-anchor="start" x="198" y="-791" font-family="Helvetica,sans-Serif" font-size="10.00">afti_partition_rows</text>
<text text-anchor="start" x="198" y="-780" font-family="Helvetica,sans-Serif" font-size="10.00">_height_minus1</text>
<text text-anchor="start" x="185" y="-765" font-family="Helvetica,sans-Serif" font-size="10.00">+</text>
<text text-anchor="start" x="198" y="-765" font-family="Helvetica,sans-Serif" font-size="10.00">afti_num_partition</text>
<text text-anchor="start" x="198" y="-754" font-family="Helvetica,sans-Serif" font-size="10.00">_columns_minus1</text>
<text text-anchor="start" x="185" y="-739" font-family="Helvetica,sans-Serif" font-size="10.00">+</text>
<text text-anchor="start" x="198" y="-739" font-family="Helvetica,sans-Serif" font-size="10.00">afti_num_partition</text>
<text text-anchor="start" x="198" y="-728" font-family="Helvetica,sans-Serif" font-size="10.00">_rows_minus1</text>
<text text-anchor="start" x="185" y="-713" font-family="Helvetica,sans-Serif" font-size="10.00">+</text>
<text text-anchor="start" x="198" y="-713" font-family="Helvetica,sans-Serif" font-size="10.00">afti_partition_column</text>
<text text-anchor="start" x="198" y="-702" font-family="Helvetica,sans-Serif" font-size="10.00">_width_minus1</text>
<text text-anchor="start" x="185" y="-687" font-family="Helvetica,sans-Serif" font-size="10.00">+</text>
<text text-anchor="start" x="198" y="-687" font-family="Helvetica,sans-Serif" font-size="10.00">afti_partition_row</text>
<text text-anchor="start" x="198" y="-676" font-family="Helvetica,sans-Serif" font-size="10.00">_height_minus1</text>
<text text-anchor="start" x="185" y="-661" font-family="Helvetica,sans-Serif" font-size="10.00">+</text>
<text text-anchor="start" x="198" y="-661" font-family="Helvetica,sans-Serif" font-size="10.00">afti_single_partition</text>
<text text-anchor="start" x="198" y="-650" font-family="Helvetica,sans-Serif" font-size="10.00">_per_tile_flag</text>
<text text-anchor="start" x="185" y="-635" font-family="Helvetica,sans-Serif" font-size="10.00">+</text>
<text text-anchor="start" x="198" y="-635" font-family="Helvetica,sans-Serif" font-size="10.00">afti_num_tiles_in_atlas</text>
<text text-anchor="start" x="198" y="-624" font-family="Helvetica,sans-Serif" font-size="10.00">_frame_minus1</text>
<text text-anchor="start" x="198" y="-609" font-family="Helvetica,sans-Serif" font-size="10.00">and 8 more...</text>
<text text-anchor="start" x="246" y="-594" font-family="Helvetica,sans-Serif" font-size="10.00"> </text>
<polygon fill="#666666" stroke="#666666" points="181,-879 181,-879 315,-879 315,-879 181,-879"/>
<polygon fill="#666666" stroke="#666666" points="181,-604 181,-604 196,-604 196,-604 181,-604"/>
<polygon fill="#666666" stroke="#666666" points="196,-604 196,-604 315,-604 315,-604 196,-604"/>
<polygon fill="none" stroke="#666666" points="181,-587 181,-907 315,-907 315,-587 181,-587"/>
</a>
</g>
</g>
<!-- Node5&#45;&gt;Node4 -->
<g id="edge4_Node000004_Node000005" class="edge">
<title>Node5&#45;&gt;Node4</title>
<g id="a_edge4_Node000004_Node000005"><a xlink:title=" ">
<path fill="none" stroke="#63b8ff" d="M248,-586.86C248,-573.5 248,-560.01 248,-546.68"/>
<polygon fill="none" stroke="#63b8ff" points="248,-546.51 244,-540.51 248,-534.51 252,-540.51 248,-546.51"/>
</a>
</g>
<text text-anchor="middle" x="262" y="-561" font-family="Helvetica,sans-Serif" font-size="10.00" fill="grey"> +afti</text>
</g>
</g>
</svg>
