<?xml version="1.0" encoding="UTF-8" standalone="no"?>
<!DOCTYPE svg PUBLIC "-//W3C//DTD SVG 1.1//EN"
 "http://www.w3.org/Graphics/SVG/1.1/DTD/svg11.dtd">
<!-- Generated by graphviz version 2.43.0 (0)
 -->
<!-- Title: src/libuvgformat/utils/parameters.cpp Pages: 1 -->
<svg width="973pt" height="258pt"
 viewBox="0.00 0.00 972.50 258.00" xmlns="http://www.w3.org/2000/svg" xmlns:xlink="http://www.w3.org/1999/xlink">
<g id="graph0" class="graph" transform="scale(1 1) rotate(0) translate(4 254)">
<title>src/libuvgformat/utils/parameters.cpp</title>
<!-- Node1 -->
<g id="Node000001" class="node">
<title>Node1</title>
<g id="a_Node000001"><a xlink:title=" ">
<polygon fill="#999999" stroke="#666666" points="871,-250 750,-250 750,-220 871,-220 871,-250"/>
<text text-anchor="start" x="758" y="-238" font-family="Helvetica,sans-Serif" font-size="10.00">src/libuvgformat/utils</text>
<text text-anchor="middle" x="810.5" y="-227" font-family="Helvetica,sans-Serif" font-size="10.00">/parameters.cpp</text>
</a>
</g>
</g>
<!-- Node2 -->
<g id="Node000002" class="node">
<title>Node2</title>
<g id="a_Node000002"><a xlink:href="libuvgformat_2utils_2parameters_8hpp.html" target="_top" xlink:title=" ">
<polygon fill="white" stroke="#666666" points="604.5,-184 510.5,-184 510.5,-165 604.5,-165 604.5,-184"/>
<text text-anchor="middle" x="557.5" y="-172" font-family="Helvetica,sans-Serif" font-size="10.00">parameters.hpp</text>
</a>
</g>
</g>
<!-- Node1&#45;&gt;Node2 -->
<g id="edge1_Node000001_Node000002" class="edge">
<title>Node1&#45;&gt;Node2</title>
<g id="a_edge1_Node000001_Node000002"><a xlink:title=" ">
<path fill="none" stroke="#63b8ff" d="M749.9,-219.99C705.2,-209.65 645.26,-195.79 604.24,-186.31"/>
<polygon fill="#63b8ff" stroke="#63b8ff" points="605.02,-182.9 594.49,-184.05 603.45,-189.72 605.02,-182.9"/>
</a>
</g>
</g>
<!-- Node5 -->
<g id="Node000005" class="node">
<title>Node5</title>
<g id="a_Node000005"><a xlink:title=" ">
<polygon fill="#e0e0e0" stroke="#999999" points="650.5,-19 606.5,-19 606.5,0 650.5,0 650.5,-19"/>
<text text-anchor="middle" x="628.5" y="-7" font-family="Helvetica,sans-Serif" font-size="10.00">string</text>
</a>
</g>
</g>
<!-- Node1&#45;&gt;Node5 -->
<g id="edge26_Node000001_Node000005" class="edge">
<title>Node1&#45;&gt;Node5</title>
<g id="a_edge26_Node000001_Node000005"><a xlink:title=" ">
<path fill="none" stroke="#63b8ff" d="M822.28,-219.69C847.85,-186.85 902.89,-105.05 861.5,-55 836.36,-24.6 718.36,-14.78 660.56,-11.76"/>
<polygon fill="#63b8ff" stroke="#63b8ff" points="660.67,-8.26 650.51,-11.27 660.33,-15.25 660.67,-8.26"/>
</a>
</g>
</g>
<!-- Node7 -->
<g id="Node000007" class="node">
<title>Node7</title>
<g id="a_Node000007"><a xlink:href="parameterManager_8hpp.html" target="_top" xlink:title=" ">
<polygon fill="white" stroke="#666666" points="811,-129 638,-129 638,-110 811,-110 811,-129"/>
<text text-anchor="middle" x="724.5" y="-117" font-family="Helvetica,sans-Serif" font-size="10.00">uvgutils/parameterManager.hpp</text>
</a>
</g>
</g>
<!-- Node1&#45;&gt;Node7 -->
<g id="edge29_Node000001_Node000007" class="edge">
<title>Node1&#45;&gt;Node7</title>
<g id="a_edge29_Node000001_Node000007"><a xlink:title=" ">
<path fill="none" stroke="#63b8ff" d="M799.61,-219.63C783.72,-198.65 754.24,-159.75 737.32,-137.42"/>
<polygon fill="#63b8ff" stroke="#63b8ff" points="739.94,-135.09 731.11,-129.23 734.36,-139.31 739.94,-135.09"/>
</a>
</g>
</g>
<!-- Node9 -->
<g id="Node000009" class="node">
<title>Node9</title>
<g id="a_Node000009"><a xlink:title=" ">
<polygon fill="#e0e0e0" stroke="#999999" points="852,-74 759,-74 759,-55 852,-55 852,-74"/>
<text text-anchor="middle" x="805.5" y="-62" font-family="Helvetica,sans-Serif" font-size="10.00">unordered_map</text>
</a>
</g>
</g>
<!-- Node1&#45;&gt;Node9 -->
<g id="edge27_Node000001_Node000009" class="edge">
<title>Node1&#45;&gt;Node9</title>
<g id="a_edge27_Node000001_Node000009"><a xlink:title=" ">
<path fill="none" stroke="#63b8ff" d="M813.87,-219.78C818.86,-196.63 826.97,-149.43 820.5,-110 819.03,-101.05 816.01,-91.47 813.06,-83.51"/>
<polygon fill="#63b8ff" stroke="#63b8ff" points="816.29,-82.16 809.36,-74.15 809.78,-84.74 816.29,-82.16"/>
</a>
</g>
</g>
<!-- Node15 -->
<g id="Node000015" class="node">
<title>Node15</title>
<g id="a_Node000015"><a xlink:href="log_8hpp.html" target="_top" xlink:title=" ">
<polygon fill="white" stroke="#666666" points="207,-74 154,-74 154,-55 207,-55 207,-74"/>
<text text-anchor="middle" x="180.5" y="-62" font-family="Helvetica,sans-Serif" font-size="10.00">log.hpp</text>
</a>
</g>
</g>
<!-- Node1&#45;&gt;Node15 -->
<g id="edge28_Node000001_Node000015" class="edge">
<title>Node1&#45;&gt;Node15</title>
<g id="a_edge28_Node000001_Node000015"><a xlink:title=" ">
<path fill="none" stroke="#63b8ff" d="M749.61,-227.3C654.31,-215.46 465.21,-186.47 314.5,-129 275.51,-114.13 232.17,-92.63 205.62,-78.86"/>
<polygon fill="#63b8ff" stroke="#63b8ff" points="207.13,-75.7 196.64,-74.17 203.88,-81.9 207.13,-75.7"/>
</a>
</g>
</g>
<!-- Node20 -->
<g id="Node000020" class="node">
<title>Node20</title>
<g id="a_Node000020"><a xlink:title=" ">
<polygon fill="#e0e0e0" stroke="#999999" points="964.5,-184 908.5,-184 908.5,-165 964.5,-165 964.5,-184"/>
<text text-anchor="middle" x="936.5" y="-172" font-family="Helvetica,sans-Serif" font-size="10.00">numeric</text>
</a>
</g>
</g>
<!-- Node1&#45;&gt;Node20 -->
<g id="edge25_Node000001_Node000020" class="edge">
<title>Node1&#45;&gt;Node20</title>
<g id="a_edge25_Node000001_Node000020"><a xlink:title=" ">
<path fill="none" stroke="#63b8ff" d="M840.68,-219.99C861.33,-210.4 888.5,-197.79 908.63,-188.44"/>
<polygon fill="#63b8ff" stroke="#63b8ff" points="910.3,-191.52 917.89,-184.14 907.35,-185.18 910.3,-191.52"/>
</a>
</g>
</g>
<!-- Node3 -->
<g id="Node000003" class="node">
<title>Node3</title>
<g id="a_Node000003"><a xlink:title=" ">
<polygon fill="#e0e0e0" stroke="#999999" points="581,-74 528,-74 528,-55 581,-55 581,-74"/>
<text text-anchor="middle" x="554.5" y="-62" font-family="Helvetica,sans-Serif" font-size="10.00">cstddef</text>
</a>
</g>
</g>
<!-- Node2&#45;&gt;Node3 -->
<g id="edge2_Node000002_Node000003" class="edge">
<title>Node2&#45;&gt;Node3</title>
<g id="a_edge2_Node000002_Node000003"><a xlink:title=" ">
<path fill="none" stroke="#63b8ff" d="M548.48,-164.96C540.43,-156.66 529.21,-143.25 524.5,-129 519.03,-112.44 529.03,-94.57 538.93,-82.02"/>
<polygon fill="#63b8ff" stroke="#63b8ff" points="541.73,-84.13 545.57,-74.26 536.41,-79.58 541.73,-84.13"/>
</a>
</g>
</g>
<!-- Node4 -->
<g id="Node000004" class="node">
<title>Node4</title>
<g id="a_Node000004"><a xlink:title=" ">
<polygon fill="#e0e0e0" stroke="#999999" points="509.5,-74 465.5,-74 465.5,-55 509.5,-55 509.5,-74"/>
<text text-anchor="middle" x="487.5" y="-62" font-family="Helvetica,sans-Serif" font-size="10.00">limits</text>
</a>
</g>
</g>
<!-- Node2&#45;&gt;Node4 -->
<g id="edge3_Node000002_Node000004" class="edge">
<title>Node2&#45;&gt;Node4</title>
<g id="a_edge3_Node000002_Node000004"><a xlink:title=" ">
<path fill="none" stroke="#63b8ff" d="M548.96,-164.81C540.78,-156.18 528.39,-142.37 519.5,-129 509.79,-114.4 501.01,-96.45 495.11,-83.37"/>
<polygon fill="#63b8ff" stroke="#63b8ff" points="498.25,-81.83 491.03,-74.07 491.84,-84.64 498.25,-81.83"/>
</a>
</g>
</g>
<!-- Node2&#45;&gt;Node5 -->
<g id="edge4_Node000002_Node000005" class="edge">
<title>Node2&#45;&gt;Node5</title>
<g id="a_edge4_Node000002_Node000005"><a xlink:title=" ">
<path fill="none" stroke="#63b8ff" d="M564.98,-164.82C572.09,-156.21 582.68,-142.4 589.5,-129 606.54,-95.51 618.4,-52.97 624.27,-29.05"/>
<polygon fill="#63b8ff" stroke="#63b8ff" points="627.71,-29.72 626.61,-19.19 620.9,-28.11 627.71,-29.72"/>
</a>
</g>
</g>
<!-- Node6 -->
<g id="Node000006" class="node">
<title>Node6</title>
<g id="a_Node000006"><a xlink:title=" ">
<polygon fill="#e0e0e0" stroke="#999999" points="581,-129 534,-129 534,-110 581,-110 581,-129"/>
<text text-anchor="middle" x="557.5" y="-117" font-family="Helvetica,sans-Serif" font-size="10.00">vector</text>
</a>
</g>
</g>
<!-- Node2&#45;&gt;Node6 -->
<g id="edge5_Node000002_Node000006" class="edge">
<title>Node2&#45;&gt;Node6</title>
<g id="a_edge5_Node000002_Node000006"><a xlink:title=" ">
<path fill="none" stroke="#63b8ff" d="M557.5,-164.75C557.5,-157.8 557.5,-147.85 557.5,-139.13"/>
<polygon fill="#63b8ff" stroke="#63b8ff" points="561,-139.09 557.5,-129.09 554,-139.09 561,-139.09"/>
</a>
</g>
</g>
<!-- Node2&#45;&gt;Node7 -->
<g id="edge6_Node000002_Node000007" class="edge">
<title>Node2&#45;&gt;Node7</title>
<g id="a_edge6_Node000002_Node000007"><a xlink:title=" ">
<path fill="none" stroke="#63b8ff" d="M584.33,-164.98C612.37,-156.09 656.55,-142.07 687.8,-132.15"/>
<polygon fill="#63b8ff" stroke="#63b8ff" points="688.99,-135.44 697.46,-129.08 686.87,-128.77 688.99,-135.44"/>
</a>
</g>
</g>
<!-- Node10 -->
<g id="Node000010" class="node">
<title>Node10</title>
<g id="a_Node000010"><a xlink:href="utils_8hpp.html" target="_top" xlink:title=" ">
<polygon fill="white" stroke="#666666" points="425,-129 324,-129 324,-110 425,-110 425,-129"/>
<text text-anchor="middle" x="374.5" y="-117" font-family="Helvetica,sans-Serif" font-size="10.00">uvgutils/utils.hpp</text>
</a>
</g>
</g>
<!-- Node2&#45;&gt;Node10 -->
<g id="edge11_Node000002_Node000010" class="edge">
<title>Node2&#45;&gt;Node10</title>
<g id="a_edge11_Node000002_Node000010"><a xlink:title=" ">
<path fill="none" stroke="#63b8ff" d="M528.1,-164.98C497.11,-156.01 448.12,-141.82 413.83,-131.89"/>
<polygon fill="#63b8ff" stroke="#63b8ff" points="414.71,-128.5 404.13,-129.08 412.76,-135.23 414.71,-128.5"/>
</a>
</g>
</g>
<!-- Node7&#45;&gt;Node3 -->
<g id="edge7_Node000007_Node000003" class="edge">
<title>Node7&#45;&gt;Node3</title>
<g id="a_edge7_Node000007_Node000003"><a xlink:title=" ">
<path fill="none" stroke="#63b8ff" d="M697.19,-109.98C668.39,-101.01 622.87,-86.82 591.01,-76.88"/>
<polygon fill="#63b8ff" stroke="#63b8ff" points="591.77,-73.45 581.19,-73.82 589.69,-80.14 591.77,-73.45"/>
</a>
</g>
</g>
<!-- Node7&#45;&gt;Node5 -->
<g id="edge9_Node000007_Node000005" class="edge">
<title>Node7&#45;&gt;Node5</title>
<g id="a_edge9_Node000007_Node000005"><a xlink:title=" ">
<path fill="none" stroke="#63b8ff" d="M710.41,-109.89C697.85,-101.73 679.5,-88.59 666.5,-74 654.24,-60.24 643.79,-41.97 636.97,-28.55"/>
<polygon fill="#63b8ff" stroke="#63b8ff" points="640.03,-26.85 632.49,-19.4 633.74,-29.92 640.03,-26.85"/>
</a>
</g>
</g>
<!-- Node8 -->
<g id="Node000008" class="node">
<title>Node8</title>
<g id="a_Node000008"><a xlink:title=" ">
<polygon fill="#e0e0e0" stroke="#999999" points="741,-74 676,-74 676,-55 741,-55 741,-74"/>
<text text-anchor="middle" x="708.5" y="-62" font-family="Helvetica,sans-Serif" font-size="10.00">stdexcept</text>
</a>
</g>
</g>
<!-- Node7&#45;&gt;Node8 -->
<g id="edge8_Node000007_Node000008" class="edge">
<title>Node7&#45;&gt;Node8</title>
<g id="a_edge8_Node000007_Node000008"><a xlink:title=" ">
<path fill="none" stroke="#63b8ff" d="M721.86,-109.75C719.74,-102.72 716.69,-92.62 714.04,-83.84"/>
<polygon fill="#63b8ff" stroke="#63b8ff" points="717.33,-82.65 711.09,-74.09 710.63,-84.67 717.33,-82.65"/>
</a>
</g>
</g>
<!-- Node7&#45;&gt;Node9 -->
<g id="edge10_Node000007_Node000009" class="edge">
<title>Node7&#45;&gt;Node9</title>
<g id="a_edge10_Node000007_Node000009"><a xlink:title=" ">
<path fill="none" stroke="#63b8ff" d="M737.51,-109.98C749.96,-101.84 768.96,-89.41 783.71,-79.76"/>
<polygon fill="#63b8ff" stroke="#63b8ff" points="785.8,-82.57 792.25,-74.17 781.96,-76.72 785.8,-82.57"/>
</a>
</g>
</g>
<!-- Node10&#45;&gt;Node3 -->
<g id="edge13_Node000010_Node000003" class="edge">
<title>Node10&#45;&gt;Node3</title>
<g id="a_edge13_Node000010_Node000003"><a xlink:title=" ">
<path fill="none" stroke="#63b8ff" d="M403.42,-109.98C434.58,-100.81 484.24,-86.19 518.05,-76.23"/>
<polygon fill="#63b8ff" stroke="#63b8ff" points="519.39,-79.49 528,-73.3 517.42,-72.77 519.39,-79.49"/>
</a>
</g>
</g>
<!-- Node10&#45;&gt;Node4 -->
<g id="edge16_Node000010_Node000004" class="edge">
<title>Node10&#45;&gt;Node4</title>
<g id="a_edge16_Node000010_Node000004"><a xlink:title=" ">
<path fill="none" stroke="#63b8ff" d="M392.66,-109.98C410.75,-101.5 438.78,-88.35 459.69,-78.54"/>
<polygon fill="#63b8ff" stroke="#63b8ff" points="461.45,-81.59 469.01,-74.17 458.47,-75.25 461.45,-81.59"/>
</a>
</g>
</g>
<!-- Node11 -->
<g id="Node000011" class="node">
<title>Node11</title>
<g id="a_Node000011"><a xlink:title=" ">
<polygon fill="#e0e0e0" stroke="#999999" points="447.5,-74 405.5,-74 405.5,-55 447.5,-55 447.5,-74"/>
<text text-anchor="middle" x="426.5" y="-62" font-family="Helvetica,sans-Serif" font-size="10.00">array</text>
</a>
</g>
</g>
<!-- Node10&#45;&gt;Node11 -->
<g id="edge12_Node000010_Node000011" class="edge">
<title>Node10&#45;&gt;Node11</title>
<g id="a_edge12_Node000010_Node000011"><a xlink:title=" ">
<path fill="none" stroke="#63b8ff" d="M383.09,-109.75C390.66,-102.03 401.88,-90.6 411.01,-81.28"/>
<polygon fill="#63b8ff" stroke="#63b8ff" points="413.57,-83.68 418.07,-74.09 408.57,-78.78 413.57,-83.68"/>
</a>
</g>
</g>
<!-- Node12 -->
<g id="Node000012" class="node">
<title>Node12</title>
<g id="a_Node000012"><a xlink:title=" ">
<polygon fill="#e0e0e0" stroke="#999999" points="275.5,-74 225.5,-74 225.5,-55 275.5,-55 275.5,-74"/>
<text text-anchor="middle" x="250.5" y="-62" font-family="Helvetica,sans-Serif" font-size="10.00">cstdint</text>
</a>
</g>
</g>
<!-- Node10&#45;&gt;Node12 -->
<g id="edge14_Node000010_Node000012" class="edge">
<title>Node10&#45;&gt;Node12</title>
<g id="a_edge14_Node000010_Node000012"><a xlink:title=" ">
<path fill="none" stroke="#63b8ff" d="M354.58,-109.98C334.45,-101.38 303.12,-87.99 280.09,-78.15"/>
<polygon fill="#63b8ff" stroke="#63b8ff" points="281.36,-74.88 270.79,-74.17 278.6,-81.32 281.36,-74.88"/>
</a>
</g>
</g>
<!-- Node13 -->
<g id="Node000013" class="node">
<title>Node13</title>
<g id="a_Node000013"><a xlink:title=" ">
<polygon fill="#e0e0e0" stroke="#999999" points="339.5,-19 283.5,-19 283.5,0 339.5,0 339.5,-19"/>
<text text-anchor="middle" x="311.5" y="-7" font-family="Helvetica,sans-Serif" font-size="10.00">iomanip</text>
</a>
</g>
</g>
<!-- Node10&#45;&gt;Node13 -->
<g id="edge15_Node000010_Node000013" class="edge">
<title>Node10&#45;&gt;Node13</title>
<g id="a_edge15_Node000010_Node000013"><a xlink:title=" ">
<path fill="none" stroke="#63b8ff" d="M359.67,-109.9C347.65,-102.11 331.31,-89.49 322.5,-74 314.8,-60.46 312.22,-42.87 311.47,-29.63"/>
<polygon fill="#63b8ff" stroke="#63b8ff" points="314.96,-29.24 311.2,-19.34 307.96,-29.43 314.96,-29.24"/>
</a>
</g>
</g>
<!-- Node14 -->
<g id="Node000014" class="node">
<title>Node14</title>
<g id="a_Node000014"><a xlink:title=" ">
<polygon fill="#e0e0e0" stroke="#999999" points="387.5,-74 331.5,-74 331.5,-55 387.5,-55 387.5,-74"/>
<text text-anchor="middle" x="359.5" y="-62" font-family="Helvetica,sans-Serif" font-size="10.00">sstream</text>
</a>
</g>
</g>
<!-- Node10&#45;&gt;Node14 -->
<g id="edge17_Node000010_Node000014" class="edge">
<title>Node10&#45;&gt;Node14</title>
<g id="a_edge17_Node000010_Node000014"><a xlink:title=" ">
<path fill="none" stroke="#63b8ff" d="M372.02,-109.75C370.04,-102.72 367.18,-92.62 364.69,-83.84"/>
<polygon fill="#63b8ff" stroke="#63b8ff" points="368.02,-82.76 361.93,-74.09 361.29,-84.66 368.02,-82.76"/>
</a>
</g>
</g>
<!-- Node10&#45;&gt;Node15 -->
<g id="edge18_Node000010_Node000015" class="edge">
<title>Node10&#45;&gt;Node15</title>
<g id="a_edge18_Node000010_Node000015"><a xlink:title=" ">
<path fill="none" stroke="#63b8ff" d="M343.33,-109.98C308.87,-100.57 253.42,-85.42 216.96,-75.46"/>
<polygon fill="#63b8ff" stroke="#63b8ff" points="217.79,-72.06 207.22,-72.8 215.94,-78.81 217.79,-72.06"/>
</a>
</g>
</g>
<!-- Node15&#45;&gt;Node5 -->
<g id="edge24_Node000015_Node000005" class="edge">
<title>Node15&#45;&gt;Node5</title>
<g id="a_edge24_Node000015_Node000005"><a xlink:title=" ">
<path fill="none" stroke="#63b8ff" d="M207.16,-56.82C210.3,-56.14 213.46,-55.52 216.5,-55 356.84,-30.95 526.43,-17.49 596.17,-12.62"/>
<polygon fill="#63b8ff" stroke="#63b8ff" points="596.74,-16.09 606.48,-11.91 596.26,-9.1 596.74,-16.09"/>
</a>
</g>
</g>
<!-- Node15&#45;&gt;Node13 -->
<g id="edge21_Node000015_Node000013" class="edge">
<title>Node15&#45;&gt;Node13</title>
<g id="a_edge21_Node000015_Node000013"><a xlink:title=" ">
<path fill="none" stroke="#63b8ff" d="M201.55,-54.98C222.91,-46.34 256.2,-32.87 280.56,-23.02"/>
<polygon fill="#63b8ff" stroke="#63b8ff" points="282.11,-26.17 290.07,-19.17 279.49,-19.68 282.11,-26.17"/>
</a>
</g>
</g>
<!-- Node16 -->
<g id="Node000016" class="node">
<title>Node16</title>
<g id="a_Node000016"><a xlink:title=" ">
<polygon fill="#e0e0e0" stroke="#999999" points="265.5,-19 215.5,-19 215.5,0 265.5,0 265.5,-19"/>
<text text-anchor="middle" x="240.5" y="-7" font-family="Helvetica,sans-Serif" font-size="10.00">chrono</text>
</a>
</g>
</g>
<!-- Node15&#45;&gt;Node16 -->
<g id="edge19_Node000015_Node000016" class="edge">
<title>Node15&#45;&gt;Node16</title>
<g id="a_edge19_Node000015_Node000016"><a xlink:title=" ">
<path fill="none" stroke="#63b8ff" d="M190.14,-54.98C199.01,-47.15 212.37,-35.34 223.11,-25.86"/>
<polygon fill="#63b8ff" stroke="#63b8ff" points="225.51,-28.41 230.68,-19.17 220.87,-23.17 225.51,-28.41"/>
</a>
</g>
</g>
<!-- Node17 -->
<g id="Node000017" class="node">
<title>Node17</title>
<g id="a_Node000017"><a xlink:title=" ">
<polygon fill="#e0e0e0" stroke="#999999" points="53,-19 0,-19 0,0 53,0 53,-19"/>
<text text-anchor="middle" x="26.5" y="-7" font-family="Helvetica,sans-Serif" font-size="10.00">cstdarg</text>
</a>
</g>
</g>
<!-- Node15&#45;&gt;Node17 -->
<g id="edge20_Node000015_Node000017" class="edge">
<title>Node15&#45;&gt;Node17</title>
<g id="a_edge20_Node000015_Node000017"><a xlink:title=" ">
<path fill="none" stroke="#63b8ff" d="M155.76,-54.98C130.13,-46.16 89.87,-32.31 61.09,-22.41"/>
<polygon fill="#63b8ff" stroke="#63b8ff" points="62.03,-19.03 51.44,-19.08 59.75,-25.65 62.03,-19.03"/>
</a>
</g>
</g>
<!-- Node18 -->
<g id="Node000018" class="node">
<title>Node18</title>
<g id="a_Node000018"><a xlink:title=" ">
<polygon fill="#e0e0e0" stroke="#999999" points="131.5,-19 71.5,-19 71.5,0 131.5,0 131.5,-19"/>
<text text-anchor="middle" x="101.5" y="-7" font-family="Helvetica,sans-Serif" font-size="10.00">iostream</text>
</a>
</g>
</g>
<!-- Node15&#45;&gt;Node18 -->
<g id="edge22_Node000015_Node000018" class="edge">
<title>Node15&#45;&gt;Node18</title>
<g id="a_edge22_Node000015_Node000018"><a xlink:title=" ">
<path fill="none" stroke="#63b8ff" d="M167.81,-54.98C155.67,-46.84 137.14,-34.41 122.75,-24.76"/>
<polygon fill="#63b8ff" stroke="#63b8ff" points="124.68,-21.84 114.42,-19.17 120.78,-27.65 124.68,-21.84"/>
</a>
</g>
</g>
<!-- Node19 -->
<g id="Node000019" class="node">
<title>Node19</title>
<g id="a_Node000019"><a xlink:title=" ">
<polygon fill="#e0e0e0" stroke="#999999" points="197.5,-19 149.5,-19 149.5,0 197.5,0 197.5,-19"/>
<text text-anchor="middle" x="173.5" y="-7" font-family="Helvetica,sans-Serif" font-size="10.00">mutex</text>
</a>
</g>
</g>
<!-- Node15&#45;&gt;Node19 -->
<g id="edge23_Node000015_Node000019" class="edge">
<title>Node15&#45;&gt;Node19</title>
<g id="a_edge23_Node000015_Node000019"><a xlink:title=" ">
<path fill="none" stroke="#63b8ff" d="M179.34,-54.75C178.43,-47.8 177.11,-37.85 175.96,-29.13"/>
<polygon fill="#63b8ff" stroke="#63b8ff" points="179.41,-28.54 174.63,-19.09 172.47,-29.46 179.41,-28.54"/>
</a>
</g>
</g>
</g>
</svg>
