<?xml version="1.0" encoding="UTF-8" standalone="no"?>
<!DOCTYPE svg PUBLIC "-//W3C//DTD SVG 1.1//EN"
 "http://www.w3.org/Graphics/SVG/1.1/DTD/svg11.dtd">
<!-- Generated by graphviz version 2.43.0 (0)
 -->
<!-- Title: uvgv3cbitstream::uvg_bitstream_add_rbsp_trailing_bits Pages: 1 -->
<svg width="1178pt" height="86pt"
 viewBox="0.00 0.00 1178.00 86.00" xmlns="http://www.w3.org/2000/svg" xmlns:xlink="http://www.w3.org/1999/xlink">
<g id="graph0" class="graph" transform="scale(1 1) rotate(0) translate(4 82)">
<title>uvgv3cbitstream::uvg_bitstream_add_rbsp_trailing_bits</title>
<!-- Node1 -->
<g id="Node000001" class="node">
<title>Node1</title>
<g id="a_Node000001"><a xlink:title=" ">
<polygon fill="#999999" stroke="#666666" points="1170,-54 988,-54 988,-24 1170,-24 1170,-54"/>
<text text-anchor="start" x="996" y="-42" font-family="Helvetica,sans-Serif" font-size="10.00">uvgv3cbitstream::uvg</text>
<text text-anchor="middle" x="1079" y="-31" font-family="Helvetica,sans-Serif" font-size="10.00">_bitstream_add_rbsp_trailing_bits</text>
</a>
</g>
</g>
<!-- Node2 -->
<g id="Node000002" class="node">
<title>Node2</title>
<g id="a_Node000002"><a xlink:href="namespaceuvgv3cbitstream.html#a0f95996cbcdaaba2093de9063ba76701" target="_top" xlink:title=" ">
<polygon fill="white" stroke="#666666" points="952,-54 829,-54 829,-24 952,-24 952,-54"/>
<text text-anchor="start" x="837" y="-42" font-family="Helvetica,sans-Serif" font-size="10.00">uvgv3cbitstream::uvg</text>
<text text-anchor="middle" x="890.5" y="-31" font-family="Helvetica,sans-Serif" font-size="10.00">_bitstream_align</text>
</a>
</g>
</g>
<!-- Node1&#45;&gt;Node2 -->
<g id="edge1_Node000001_Node000002" class="edge">
<title>Node1&#45;&gt;Node2</title>
<g id="a_edge1_Node000001_Node000002"><a xlink:title=" ">
<path fill="none" stroke="#63b8ff" d="M977.56,-39C968.89,-39 960.3,-39 952.1,-39"/>
<polygon fill="#63b8ff" stroke="#63b8ff" points="977.75,-42.5 987.75,-39 977.75,-35.5 977.75,-42.5"/>
</a>
</g>
</g>
<!-- Node3 -->
<g id="Node000003" class="node">
<title>Node3</title>
<g id="a_Node000003"><a xlink:href="namespaceuvgv3cbitstream.html#ad7ea0fa4361e2e55f3d256edd9bd6c80" target="_top" xlink:title=" ">
<polygon fill="white" stroke="#666666" points="793,-48.5 645,-48.5 645,-29.5 793,-29.5 793,-48.5"/>
<text text-anchor="middle" x="719" y="-36.5" font-family="Helvetica,sans-Serif" font-size="10.00">uvgv3cbitstream::writeVps</text>
</a>
</g>
</g>
<!-- Node2&#45;&gt;Node3 -->
<g id="edge2_Node000002_Node000003" class="edge">
<title>Node2&#45;&gt;Node3</title>
<g id="a_edge2_Node000002_Node000003"><a xlink:title=" ">
<path fill="none" stroke="#63b8ff" d="M818.6,-39C810.14,-39 801.51,-39 793.03,-39"/>
<polygon fill="#63b8ff" stroke="#63b8ff" points="818.79,-42.5 828.79,-39 818.79,-35.5 818.79,-42.5"/>
</a>
</g>
</g>
<!-- Node4 -->
<g id="Node000004" class="node">
<title>Node4</title>
<g id="a_Node000004"><a xlink:href="namespaceuvgv3cbitstream.html#a718cdb53b6719407e8af1bbc8b8733d0" target="_top" xlink:title=" ">
<polygon fill="white" stroke="#666666" points="609,-78 461,-78 461,-48 609,-48 609,-78"/>
<text text-anchor="start" x="469" y="-66" font-family="Helvetica,sans-Serif" font-size="10.00">uvgv3cbitstream::writeV3c</text>
<text text-anchor="middle" x="535" y="-55" font-family="Helvetica,sans-Serif" font-size="10.00">LdUnits</text>
</a>
</g>
</g>
<!-- Node3&#45;&gt;Node4 -->
<g id="edge3_Node000003_Node000004" class="edge">
<title>Node3&#45;&gt;Node4</title>
<g id="a_edge3_Node000003_Node000004"><a xlink:title=" ">
<path fill="none" stroke="#63b8ff" d="M635.87,-49.83C627.01,-51 618.04,-52.18 609.3,-53.33"/>
<polygon fill="#63b8ff" stroke="#63b8ff" points="636.35,-53.3 645.81,-48.52 635.44,-46.36 636.35,-53.3"/>
</a>
</g>
</g>
<!-- Node9 -->
<g id="Node000009" class="node">
<title>Node9</title>
<g id="a_Node000009"><a xlink:href="namespaceuvgv3cbitstream.html#aa0137fbccd3984932c4591b950d2f598" target="_top" xlink:title=" ">
<polygon fill="white" stroke="#666666" points="609,-30 461,-30 461,0 609,0 609,-30"/>
<text text-anchor="start" x="469" y="-18" font-family="Helvetica,sans-Serif" font-size="10.00">uvgv3cbitstream::writeV3c</text>
<text text-anchor="middle" x="535" y="-7" font-family="Helvetica,sans-Serif" font-size="10.00">Units</text>
</a>
</g>
</g>
<!-- Node3&#45;&gt;Node9 -->
<g id="edge9_Node000003_Node000009" class="edge">
<title>Node3&#45;&gt;Node9</title>
<g id="a_edge9_Node000003_Node000009"><a xlink:title=" ">
<path fill="none" stroke="#63b8ff" d="M635.87,-28.17C627.01,-27 618.04,-25.82 609.3,-24.67"/>
<polygon fill="#63b8ff" stroke="#63b8ff" points="635.44,-31.64 645.81,-29.48 636.35,-24.7 635.44,-31.64"/>
</a>
</g>
</g>
<!-- Node5 -->
<g id="Node000005" class="node">
<title>Node5</title>
<g id="a_Node000005"><a xlink:href="classBitstreamGeneration.html#acb1668a86b1682b4043ae04db9fd178f" target="_top" xlink:title=" ">
<polygon fill="white" stroke="#666666" points="425,-54 283,-54 283,-24 425,-24 425,-54"/>
<text text-anchor="start" x="291" y="-42" font-family="Helvetica,sans-Serif" font-size="10.00">BitstreamGeneration</text>
<text text-anchor="middle" x="354" y="-31" font-family="Helvetica,sans-Serif" font-size="10.00">::createV3CGOFBitstream</text>
</a>
</g>
</g>
<!-- Node4&#45;&gt;Node5 -->
<g id="edge4_Node000004_Node000005" class="edge">
<title>Node4&#45;&gt;Node5</title>
<g id="a_edge4_Node000004_Node000005"><a xlink:title=" ">
<path fill="none" stroke="#63b8ff" d="M450.91,-51.86C442.32,-50.71 433.66,-49.55 425.23,-48.42"/>
<polygon fill="#63b8ff" stroke="#63b8ff" points="450.56,-55.34 460.94,-53.2 451.49,-48.41 450.56,-55.34"/>
</a>
</g>
</g>
<!-- Node6 -->
<g id="Node000006" class="node">
<title>Node6</title>
<g id="a_Node000006"><a xlink:href="namespaceuvgvpcc__enc_1_1API.html#a75dacaf2d79b4a549ecb2a91ae8a6105" target="_top" xlink:title="This function is called when all frames to be processed have been sent to the encoder....">
<polygon fill="white" stroke="#666666" points="247,-78 77,-78 77,-48 247,-48 247,-78"/>
<text text-anchor="start" x="85" y="-66" font-family="Helvetica,sans-Serif" font-size="10.00">uvgvpcc_enc::API::emptyFrame</text>
<text text-anchor="middle" x="162" y="-55" font-family="Helvetica,sans-Serif" font-size="10.00">Queue</text>
</a>
</g>
</g>
<!-- Node5&#45;&gt;Node6 -->
<g id="edge5_Node000005_Node000006" class="edge">
<title>Node5&#45;&gt;Node6</title>
<g id="a_edge5_Node000005_Node000006"><a xlink:title=" ">
<path fill="none" stroke="#63b8ff" d="M272.59,-49.16C264.15,-50.22 255.55,-51.31 247.07,-52.38"/>
<polygon fill="#63b8ff" stroke="#63b8ff" points="273.31,-52.59 282.79,-47.87 272.43,-45.65 273.31,-52.59"/>
</a>
</g>
</g>
<!-- Node8 -->
<g id="Node000008" class="node">
<title>Node8</title>
<g id="a_Node000008"><a xlink:href="namespaceuvgvpcc__enc_1_1API.html#a69b67f40ff544ba840a735dc965ec185" target="_top" xlink:title="Entry point of the uvgVPCCenc library. Take as input a uvgFrame. Create all the jobs for processing t...">
<polygon fill="white" stroke="#666666" points="233.5,-30 90.5,-30 90.5,0 233.5,0 233.5,-30"/>
<text text-anchor="start" x="98.5" y="-18" font-family="Helvetica,sans-Serif" font-size="10.00">uvgvpcc_enc::API::encode</text>
<text text-anchor="middle" x="162" y="-7" font-family="Helvetica,sans-Serif" font-size="10.00">Frame</text>
</a>
</g>
</g>
<!-- Node5&#45;&gt;Node8 -->
<g id="edge7_Node000005_Node000008" class="edge">
<title>Node5&#45;&gt;Node8</title>
<g id="a_edge7_Node000005_Node000008"><a xlink:title=" ">
<path fill="none" stroke="#63b8ff" d="M272.51,-28.83C259.56,-27.2 246.25,-25.52 233.55,-23.91"/>
<polygon fill="#63b8ff" stroke="#63b8ff" points="272.43,-32.35 282.79,-30.13 273.31,-25.41 272.43,-32.35"/>
</a>
</g>
</g>
<!-- Node7 -->
<g id="Node000007" class="node">
<title>Node7</title>
<g id="a_Node000007"><a xlink:href="uvgVPCCencAppExample_8cpp.html#aee608aedd5b0b58f2966c2ff15101925" target="_top" xlink:title="This example application offers a simple approach to working with the uvgVPCCenc library and highligh...">
<polygon fill="white" stroke="#666666" points="41,-48.5 0,-48.5 0,-29.5 41,-29.5 41,-48.5"/>
<text text-anchor="middle" x="20.5" y="-36.5" font-family="Helvetica,sans-Serif" font-size="10.00">main</text>
</a>
</g>
</g>
<!-- Node6&#45;&gt;Node7 -->
<g id="edge6_Node000006_Node000007" class="edge">
<title>Node6&#45;&gt;Node7</title>
<g id="a_edge6_Node000006_Node000007"><a xlink:title=" ">
<path fill="none" stroke="#63b8ff" d="M66.61,-46.76C57.19,-45.14 48.46,-43.64 41.24,-42.4"/>
<polygon fill="#63b8ff" stroke="#63b8ff" points="66.19,-50.24 76.63,-48.49 67.37,-43.34 66.19,-50.24"/>
</a>
</g>
</g>
<!-- Node8&#45;&gt;Node7 -->
<g id="edge8_Node000008_Node000007" class="edge">
<title>Node8&#45;&gt;Node7</title>
<g id="a_edge8_Node000008_Node000007"><a xlink:title=" ">
<path fill="none" stroke="#63b8ff" d="M80.29,-28.89C65.73,-31.39 51.83,-33.78 41.2,-35.61"/>
<polygon fill="#63b8ff" stroke="#63b8ff" points="81.17,-32.29 90.43,-27.14 79.98,-25.39 81.17,-32.29"/>
</a>
</g>
</g>
<!-- Node9&#45;&gt;Node5 -->
<g id="edge10_Node000009_Node000005" class="edge">
<title>Node9&#45;&gt;Node5</title>
<g id="a_edge10_Node000009_Node000005"><a xlink:title=" ">
<path fill="none" stroke="#63b8ff" d="M450.91,-26.14C442.32,-27.29 433.66,-28.45 425.23,-29.58"/>
<polygon fill="#63b8ff" stroke="#63b8ff" points="451.49,-29.59 460.94,-24.8 450.56,-22.66 451.49,-29.59"/>
</a>
</g>
</g>
</g>
</svg>
