<?xml version="1.0" encoding="UTF-8" standalone="no"?>
<!DOCTYPE svg PUBLIC "-//W3C//DTD SVG 1.1//EN"
 "http://www.w3.org/Graphics/SVG/1.1/DTD/svg11.dtd">
<!-- Generated by graphviz version 2.43.0 (0)
 -->
<!-- Title: uvgv3cbitstream::writeV3cLdUnits Pages: 1 -->
<!--zoomable 242 -->

<svg id="main" version="1.1" xmlns="http://www.w3.org/2000/svg" xmlns:xlink="http://www.w3.org/1999/xlink" xml:space="preserve" onload="init(evt)">
<style type="text/css"><![CDATA[
.node, .edge {opacity: 0.7;}
.node.selected, .edge.selected {opacity: 1;}
.edge:hover path { stroke: red; }
.edge:hover polygon { stroke: red; fill: red; }
]]></style>

<defs>
  <circle id="rim" cx="0" cy="0" r="7"/>
  <circle id="rim2" cx="0" cy="0" r="3.5"/>
  <g id="zoomPlus">
    <use xlink:href="#rim" fill="#404040"><set attributeName="fill" to="#808080" begin="zoomplus.mouseover" end="zoomplus.mouseout"/></use>
    <path d="M-4,0h8M0,-4v8" fill="none" stroke="white" stroke-width="1.5" pointer-events="none"/>
  </g>
  <g id="zoomMin">
    <use xlink:href="#rim" fill="#404040"><set attributeName="fill" to="#808080" begin="zoomminus.mouseover" end="zoomminus.mouseout"/></use>
    <path d="M-4,0h8" fill="none" stroke="white" stroke-width="1.5" pointer-events="none"/>
  </g>
  <g id="arrowUp" transform="translate(30 24)">
    <use xlink:href="#rim"/>
    <path pointer-events="none" fill="none" stroke="white" stroke-width="1.5" d="M0,-3.0v7 M-2.5,-0.5L0,-3.0L2.5,-0.5"/>
  </g>
  <g id="arrowRight" transform="rotate(90) translate(36 -43)">
    <use xlink:href="#rim"/>
    <path pointer-events="none" fill="none" stroke="white" stroke-width="1.5" d="M0,-3.0v7 M-2.5,-0.5L0,-3.0L2.5,-0.5"/>
  </g>
  <g id="arrowDown" transform="rotate(180) translate(-30 -48)">
    <use xlink:href="#rim"/>
    <path pointer-events="none" fill="none" stroke="white" stroke-width="1.5" d="M0,-3.0v7 M-2.5,-0.5L0,-3.0L2.5,-0.5"/>
  </g>
  <g id="arrowLeft" transform="rotate(270) translate(-36 17)">
    <use xlink:href="#rim"/>
    <path pointer-events="none" fill="none" stroke="white" stroke-width="1.5" d="M0,-3.0v7 M-2.5,-0.5L0,-3.0L2.5,-0.5"/>
  </g>
  <g id="resetDef">
    <use xlink:href="#rim2" fill="#404040"><set attributeName="fill" to="#808080" begin="reset.mouseover" end="reset.mouseout"/></use>
  </g>
</defs>
<script type="application/ecmascript">
var viewWidth = 1258;
var viewHeight = 242;
var sectionId = 'dynsection-30';
</script>
<script type="application/ecmascript" xlink:href="svg.min.js"/>
<svg id="graph" class="graph">
<g id="viewport">
<title>uvgv3cbitstream::writeV3cLdUnits</title>
<!-- Node1 -->
<g id="Node000001" class="node">
<title>Node1</title>
<g id="a_Node000001"><a xlink:title=" ">
<polygon fill="#999999" stroke="#666666" points="148,-134 0,-134 0,-104 148,-104 148,-134"/>
<text text-anchor="start" x="8" y="-122" font-family="Helvetica,sans-Serif" font-size="10.00">uvgv3cbitstream::writeV3c</text>
<text text-anchor="middle" x="74" y="-111" font-family="Helvetica,sans-Serif" font-size="10.00">LdUnits</text>
</a>
</g>
</g>
<!-- Node2 -->
<g id="Node000002" class="node">
<title>Node2</title>
<g id="a_Node000002"><a xlink:href="namespaceuvgv3cbitstream.html#a43a04c71147410c555d1f1d504b422ea" target="_top" xlink:title=" ">
<polygon fill="white" stroke="#666666" points="525.5,-234 395.5,-234 395.5,-204 525.5,-204 525.5,-234"/>
<text text-anchor="start" x="403.5" y="-222" font-family="Helvetica,sans-Serif" font-size="10.00">uvgv3cbitstream::uvg</text>
<text text-anchor="middle" x="460.5" y="-211" font-family="Helvetica,sans-Serif" font-size="10.00">_bitstream_copy_bytes</text>
</a>
</g>
</g>
<!-- Node1&#45;&gt;Node2 -->
<g id="edge1_Node000001_Node000002" class="edge">
<title>Node1&#45;&gt;Node2</title>
<g id="a_edge1_Node000001_Node000002"><a xlink:title=" ">
<path fill="none" stroke="#63b8ff" d="M92.48,-134.2C112.9,-151.01 148.46,-177.38 184,-190 249.28,-213.17 328.32,-219.45 384.96,-220.51"/>
<polygon fill="#63b8ff" stroke="#63b8ff" points="385.22,-224.01 395.27,-220.65 385.32,-217.01 385.22,-224.01"/>
</a>
</g>
</g>
<!-- Node4 -->
<g id="Node000004" class="node">
<title>Node4</title>
<g id="a_Node000004"><a xlink:href="namespaceuvgv3cbitstream.html#a7701823b51eb9a986da6fb994fd52ed6" target="_top" xlink:title=" ">
<polygon fill="white" stroke="#666666" points="923,-133 800,-133 800,-103 923,-103 923,-133"/>
<text text-anchor="start" x="808" y="-121" font-family="Helvetica,sans-Serif" font-size="10.00">uvgv3cbitstream::uvg</text>
<text text-anchor="middle" x="861.5" y="-110" font-family="Helvetica,sans-Serif" font-size="10.00">_bitstream_put</text>
</a>
</g>
</g>
<!-- Node1&#45;&gt;Node4 -->
<g id="edge3_Node000001_Node000004" class="edge">
<title>Node1&#45;&gt;Node4</title>
<g id="a_edge3_Node000001_Node000004"><a xlink:title=" ">
<path fill="none" stroke="#63b8ff" d="M144.72,-134.03C269.97,-158.58 540.86,-200.39 764,-157 783.91,-153.13 804.9,-145.16 822.21,-137.43"/>
<polygon fill="#63b8ff" stroke="#63b8ff" points="823.8,-140.55 831.41,-133.18 820.87,-134.19 823.8,-140.55"/>
</a>
</g>
</g>
<!-- Node6 -->
<g id="Node000006" class="node">
<title>Node6</title>
<g id="a_Node000006"><a xlink:href="namespaceuvgv3cbitstream.html#a3a80f4e3edfa799af175346986bbff9c" target="_top" xlink:title=" ">
<polygon fill="white" stroke="#666666" points="759.5,-147.5 586.5,-147.5 586.5,-128.5 759.5,-128.5 759.5,-147.5"/>
<text text-anchor="middle" x="673" y="-135.5" font-family="Helvetica,sans-Serif" font-size="10.00">uvgv3cbitstream::writeAtlasEob</text>
</a>
</g>
</g>
<!-- Node1&#45;&gt;Node6 -->
<g id="edge6_Node000001_Node000006" class="edge">
<title>Node1&#45;&gt;Node6</title>
<g id="a_edge6_Node000001_Node000006"><a xlink:title=" ">
<path fill="none" stroke="#63b8ff" d="M148.29,-121.75C160.22,-122.18 172.46,-122.61 184,-123 320.23,-127.59 477.87,-132.33 576.27,-135.23"/>
<polygon fill="#63b8ff" stroke="#63b8ff" points="576.39,-138.73 586.49,-135.53 576.59,-131.73 576.39,-138.73"/>
</a>
</g>
</g>
<!-- Node7 -->
<g id="Node000007" class="node">
<title>Node7</title>
<g id="a_Node000007"><a xlink:href="namespaceuvgv3cbitstream.html#ac3001d252dbfa0c2f1beac4d872caf78" target="_top" xlink:title=" ">
<polygon fill="white" stroke="#666666" points="546,-109.5 375,-109.5 375,-90.5 546,-90.5 546,-109.5"/>
<text text-anchor="middle" x="460.5" y="-97.5" font-family="Helvetica,sans-Serif" font-size="10.00">uvgv3cbitstream::writeAtlasNal</text>
</a>
</g>
</g>
<!-- Node1&#45;&gt;Node7 -->
<g id="edge8_Node000001_Node000007" class="edge">
<title>Node1&#45;&gt;Node7</title>
<g id="a_edge8_Node000001_Node000007"><a xlink:title=" ">
<path fill="none" stroke="#63b8ff" d="M148.23,-115.38C209.68,-112.35 297.87,-107.99 364.71,-104.68"/>
<polygon fill="#63b8ff" stroke="#63b8ff" points="365.01,-108.17 374.82,-104.18 364.66,-101.18 365.01,-108.17"/>
</a>
</g>
</g>
<!-- Node8 -->
<g id="Node000008" class="node">
<title>Node8</title>
<g id="a_Node000008"><a xlink:href="namespaceuvgv3cbitstream.html#afc97b268c429b4a991a4630dfcc8959f" target="_top" xlink:title=" ">
<polygon fill="white" stroke="#666666" points="339,-72 184,-72 184,-42 339,-42 339,-72"/>
<text text-anchor="start" x="192" y="-60" font-family="Helvetica,sans-Serif" font-size="10.00">uvgv3cbitstream::writeAtlas</text>
<text text-anchor="middle" x="261.5" y="-49" font-family="Helvetica,sans-Serif" font-size="10.00">ParameterSetNals</text>
</a>
</g>
</g>
<!-- Node1&#45;&gt;Node8 -->
<g id="edge10_Node000001_Node000008" class="edge">
<title>Node1&#45;&gt;Node8</title>
<g id="a_edge10_Node000001_Node000008"><a xlink:title=" ">
<path fill="none" stroke="#63b8ff" d="M119.9,-103.99C145.69,-95.37 178.27,-84.49 205.57,-75.36"/>
<polygon fill="#63b8ff" stroke="#63b8ff" points="206.99,-78.57 215.37,-72.09 204.77,-71.94 206.99,-78.57"/>
</a>
</g>
</g>
<!-- Node9 -->
<g id="Node000009" class="node">
<title>Node9</title>
<g id="a_Node000009"><a xlink:href="namespaceuvgv3cbitstream.html#ad7ea0fa4361e2e55f3d256edd9bd6c80" target="_top" xlink:title=" ">
<polygon fill="white" stroke="#666666" points="335.5,-23.5 187.5,-23.5 187.5,-4.5 335.5,-4.5 335.5,-23.5"/>
<text text-anchor="middle" x="261.5" y="-11.5" font-family="Helvetica,sans-Serif" font-size="10.00">uvgv3cbitstream::writeVps</text>
</a>
</g>
</g>
<!-- Node1&#45;&gt;Node9 -->
<g id="edge12_Node000001_Node000009" class="edge">
<title>Node1&#45;&gt;Node9</title>
<g id="a_edge12_Node000001_Node000009"><a xlink:title=" ">
<path fill="none" stroke="#63b8ff" d="M89.79,-103.86C109.52,-84.56 146.34,-51.46 184,-33 188.92,-30.59 194.16,-28.47 199.52,-26.61"/>
<polygon fill="#63b8ff" stroke="#63b8ff" points="200.75,-29.89 209.22,-23.53 198.63,-23.22 200.75,-29.89"/>
</a>
</g>
</g>
<!-- Node3 -->
<g id="Node000003" class="node">
<title>Node3</title>
<g id="a_Node000003"><a xlink:href="namespaceuvgv3cbitstream.html#a0638a7f092f58fdebbaef46ee64dcf88" target="_top" xlink:title=" ">
<polygon fill="white" stroke="#666666" points="1250,-174 1118,-174 1118,-144 1250,-144 1250,-174"/>
<text text-anchor="start" x="1126" y="-162" font-family="Helvetica,sans-Serif" font-size="10.00">uvgv3cbitstream::uvg</text>
<text text-anchor="middle" x="1184" y="-151" font-family="Helvetica,sans-Serif" font-size="10.00">_bitstream_alloc_chunk</text>
</a>
</g>
</g>
<!-- Node2&#45;&gt;Node3 -->
<g id="edge2_Node000002_Node000003" class="edge">
<title>Node2&#45;&gt;Node3</title>
<g id="a_edge2_Node000002_Node000003"><a xlink:title=" ">
<path fill="none" stroke="#63b8ff" d="M525.53,-213.68C658.68,-202.6 964.88,-177.14 1107.43,-165.28"/>
<polygon fill="#63b8ff" stroke="#63b8ff" points="1108.14,-168.74 1117.82,-164.42 1107.56,-161.76 1108.14,-168.74"/>
</a>
</g>
</g>
<!-- Node5 -->
<g id="Node000005" class="node">
<title>Node5</title>
<g id="a_Node000005"><a xlink:href="namespaceuvgv3cbitstream.html#aeeb61dcbd2b917979e535f26b026f246" target="_top" xlink:title=" ">
<polygon fill="white" stroke="#666666" points="1082,-153 959,-153 959,-123 1082,-123 1082,-153"/>
<text text-anchor="start" x="967" y="-141" font-family="Helvetica,sans-Serif" font-size="10.00">uvgv3cbitstream::uvg</text>
<text text-anchor="middle" x="1020.5" y="-130" font-family="Helvetica,sans-Serif" font-size="10.00">_bitstream_writebyte</text>
</a>
</g>
</g>
<!-- Node4&#45;&gt;Node5 -->
<g id="edge4_Node000004_Node000005" class="edge">
<title>Node4&#45;&gt;Node5</title>
<g id="a_edge4_Node000004_Node000005"><a xlink:title=" ">
<path fill="none" stroke="#63b8ff" d="M923.2,-125.73C931.64,-126.81 940.36,-127.92 948.95,-129.01"/>
<polygon fill="#63b8ff" stroke="#63b8ff" points="948.6,-132.5 958.96,-130.29 949.48,-125.55 948.6,-132.5"/>
</a>
</g>
</g>
<!-- Node5&#45;&gt;Node3 -->
<g id="edge5_Node000005_Node000003" class="edge">
<title>Node5&#45;&gt;Node3</title>
<g id="a_edge5_Node000005_Node000003"><a xlink:title=" ">
<path fill="none" stroke="#63b8ff" d="M1082.1,-145.88C1090.46,-146.97 1099.13,-148.09 1107.72,-149.21"/>
<polygon fill="#63b8ff" stroke="#63b8ff" points="1107.37,-152.7 1117.74,-150.51 1108.27,-145.75 1107.37,-152.7"/>
</a>
</g>
</g>
<!-- Node6&#45;&gt;Node4 -->
<g id="edge7_Node000006_Node000004" class="edge">
<title>Node6&#45;&gt;Node4</title>
<g id="a_edge7_Node000006_Node000004"><a xlink:title=" ">
<path fill="none" stroke="#63b8ff" d="M759.61,-128.82C769.7,-127.74 779.91,-126.64 789.77,-125.59"/>
<polygon fill="#63b8ff" stroke="#63b8ff" points="790.32,-129.05 799.89,-124.5 789.57,-122.09 790.32,-129.05"/>
</a>
</g>
</g>
<!-- Node7&#45;&gt;Node4 -->
<g id="edge9_Node000007_Node000004" class="edge">
<title>Node7&#45;&gt;Node4</title>
<g id="a_edge9_Node000007_Node000004"><a xlink:title=" ">
<path fill="none" stroke="#63b8ff" d="M546.12,-103.82C618.46,-107.08 721.39,-111.72 789.51,-114.8"/>
<polygon fill="#63b8ff" stroke="#63b8ff" points="789.57,-118.3 799.72,-115.26 789.89,-111.31 789.57,-118.3"/>
</a>
</g>
</g>
<!-- Node8&#45;&gt;Node4 -->
<g id="edge11_Node000008_Node000004" class="edge">
<title>Node8&#45;&gt;Node4</title>
<g id="a_edge11_Node000008_Node000004"><a xlink:title=" ">
<path fill="none" stroke="#63b8ff" d="M339.19,-61.65C437.77,-68.1 614.09,-81.26 764,-101 772.36,-102.1 781.11,-103.41 789.77,-104.82"/>
<polygon fill="#63b8ff" stroke="#63b8ff" points="789.44,-108.31 799.88,-106.49 790.59,-101.4 789.44,-108.31"/>
</a>
</g>
</g>
<!-- Node10 -->
<g id="Node000010" class="node">
<title>Node10</title>
<g id="a_Node000010"><a xlink:href="namespaceuvgv3cbitstream.html#a0f95996cbcdaaba2093de9063ba76701" target="_top" xlink:title=" ">
<polygon fill="white" stroke="#666666" points="522,-30 399,-30 399,0 522,0 522,-30"/>
<text text-anchor="start" x="407" y="-18" font-family="Helvetica,sans-Serif" font-size="10.00">uvgv3cbitstream::uvg</text>
<text text-anchor="middle" x="460.5" y="-7" font-family="Helvetica,sans-Serif" font-size="10.00">_bitstream_align</text>
</a>
</g>
</g>
<!-- Node9&#45;&gt;Node10 -->
<g id="edge13_Node000009_Node000010" class="edge">
<title>Node9&#45;&gt;Node10</title>
<g id="a_edge13_Node000009_Node000010"><a xlink:title=" ">
<path fill="none" stroke="#63b8ff" d="M335.58,-14.37C352.97,-14.46 371.49,-14.55 388.78,-14.64"/>
<polygon fill="#63b8ff" stroke="#63b8ff" points="388.78,-18.14 398.79,-14.69 388.81,-11.14 388.78,-18.14"/>
</a>
</g>
</g>
<!-- Node11 -->
<g id="Node000011" class="node">
<title>Node11</title>
<g id="a_Node000011"><a xlink:href="namespaceuvgv3cbitstream.html#aed00acfc9974f9f3da5905b9667ac525" target="_top" xlink:title=" ">
<polygon fill="white" stroke="#666666" points="764,-32 582,-32 582,-2 764,-2 764,-32"/>
<text text-anchor="start" x="590" y="-20" font-family="Helvetica,sans-Serif" font-size="10.00">uvgv3cbitstream::uvg</text>
<text text-anchor="middle" x="673" y="-9" font-family="Helvetica,sans-Serif" font-size="10.00">_bitstream_add_rbsp_trailing_bits</text>
</a>
</g>
</g>
<!-- Node10&#45;&gt;Node11 -->
<g id="edge14_Node000010_Node000011" class="edge">
<title>Node10&#45;&gt;Node11</title>
<g id="a_edge14_Node000010_Node000011"><a xlink:title=" ">
<path fill="none" stroke="#63b8ff" d="M522.1,-15.58C537.49,-15.72 554.44,-15.88 571.24,-16.04"/>
<polygon fill="#63b8ff" stroke="#63b8ff" points="571.64,-19.55 581.67,-16.14 571.7,-12.55 571.64,-19.55"/>
</a>
</g>
</g>
<!-- Node11&#45;&gt;Node4 -->
<g id="edge15_Node000011_Node000004" class="edge">
<title>Node11&#45;&gt;Node4</title>
<g id="a_edge15_Node000011_Node000004"><a xlink:title=" ">
<path fill="none" stroke="#63b8ff" d="M728.43,-32.1C740.44,-36.26 752.89,-41.24 764,-47 790.22,-60.59 817.04,-80.94 835.73,-96.38"/>
<polygon fill="#63b8ff" stroke="#63b8ff" points="833.56,-99.12 843.47,-102.87 838.06,-93.76 833.56,-99.12"/>
</a>
</g>
</g>
</g>
</svg>

<g id="navigator" transform="translate(0 0)" fill="#404254">
  <rect fill="#f2f5e9" fill-opacity="0.5" stroke="#606060" stroke-width=".5" x="0" y="0" width="60" height="60"/>
  <use id="zoomplus" xlink:href="#zoomPlus" x="17" y="9" onmousedown="handleZoom(evt,'in')"/>
  <use id="zoomminus" xlink:href="#zoomMin" x="42" y="9" onmousedown="handleZoom(evt,'out')"/>
  <use id="reset" xlink:href="#resetDef" x="30" y="36" onmousedown="handleReset()"/>
   <use id="arrowup" xlink:href="#arrowUp" x="0" y="0" onmousedown="handlePan(0,-1)"/>
  <use id="arrowright" xlink:href="#arrowRight" x="0" y="0" onmousedown="handlePan(1,0)"/>
  <use id="arrowdown" xlink:href="#arrowDown" x="0" y="0" onmousedown="handlePan(0,1)"/>
  <use id="arrowleft" xlink:href="#arrowLeft" x="0" y="0" onmousedown="handlePan(-1,0)"/>
</g>
<svg viewBox="0 0 15 15" width="100%" height="30px" preserveAspectRatio="xMaxYMin meet">
 <g id="arrow_out" transform="scale(0.3 0.3)">
  <a xlink:href="namespaceuvgv3cbitstream_a718cdb53b6719407e8af1bbc8b8733d0_cgraph_org.svg" target="_base">
   <rect id="button" ry="5" rx="5" y="6" x="6" height="38" width="38"
        fill="#f2f5e9" fill-opacity="0.5" stroke="#606060" stroke-width="1.0"/>
   <path id="arrow"
     d="M 11.500037,31.436501 C 11.940474,20.09759 22.043105,11.32322 32.158766,21.979434 L 37.068811,17.246167 C 37.068811,17.246167 37.088388,32 37.088388,32 L 22.160133,31.978069 C 22.160133,31.978069 26.997745,27.140456 26.997745,27.140456 C 18.528582,18.264221 13.291696,25.230495 11.500037,31.436501 z"
     style="fill:#404040;"/>
  </a>
 </g>
</svg>

<style type='text/css'>
<![CDATA[
[data-mouse-over-selected='false'] { opacity: 0.7; }
[data-mouse-over-selected='true']  { opacity: 1.0; }
]]>
</style>
<script type="application/ecmascript"><![CDATA[
document.addEventListener('DOMContentLoaded', (event) => {
  highlightEdges();
  highlightAdjacentNodes();
});
]]></script>
</svg>
