<?xml version="1.0" encoding="UTF-8" standalone="no"?>
<!DOCTYPE svg PUBLIC "-//W3C//DTD SVG 1.1//EN"
 "http://www.w3.org/Graphics/SVG/1.1/DTD/svg11.dtd">
<!-- Generated by graphviz version 2.43.0 (0)
 -->
<!-- Title: uvgv3cbitstream::uvg_bitstream_clear Pages: 1 -->
<svg width="477pt" height="86pt"
 viewBox="0.00 0.00 477.00 86.00" xmlns="http://www.w3.org/2000/svg" xmlns:xlink="http://www.w3.org/1999/xlink">
<g id="graph0" class="graph" transform="scale(1 1) rotate(0) translate(4 82)">
<title>uvgv3cbitstream::uvg_bitstream_clear</title>
<!-- Node1 -->
<g id="Node000001" class="node">
<title>Node1</title>
<g id="a_Node000001"><a xlink:title=" ">
<polygon fill="#999999" stroke="#666666" points="469,-54 346,-54 346,-24 469,-24 469,-54"/>
<text text-anchor="start" x="354" y="-42" font-family="Helvetica,sans-Serif" font-size="10.00">uvgv3cbitstream::uvg</text>
<text text-anchor="middle" x="407.5" y="-31" font-family="Helvetica,sans-Serif" font-size="10.00">_bitstream_clear</text>
</a>
</g>
</g>
<!-- Node2 -->
<g id="Node000002" class="node">
<title>Node2</title>
<g id="a_Node000002"><a xlink:href="namespaceuvgv3cbitstream.html#af66f960dd4e0b6fb93b2f8e6a946509d" target="_top" xlink:title=" ">
<polygon fill="white" stroke="#666666" points="310,-78 167,-78 167,-48 310,-48 310,-78"/>
<text text-anchor="start" x="175" y="-66" font-family="Helvetica,sans-Serif" font-size="10.00">uvgv3cbitstream::prepare</text>
<text text-anchor="middle" x="238.5" y="-55" font-family="Helvetica,sans-Serif" font-size="10.00">AtlasContext</text>
</a>
</g>
</g>
<!-- Node1&#45;&gt;Node2 -->
<g id="edge1_Node000001_Node000002" class="edge">
<title>Node1&#45;&gt;Node2</title>
<g id="a_edge1_Node000001_Node000002"><a xlink:title=" ">
<path fill="none" stroke="#63b8ff" d="M335.57,-49.19C327.15,-50.4 318.56,-51.64 310.14,-52.85"/>
<polygon fill="#63b8ff" stroke="#63b8ff" points="336.34,-52.62 345.74,-47.73 335.34,-45.69 336.34,-52.62"/>
</a>
</g>
</g>
<!-- Node4 -->
<g id="Node000004" class="node">
<title>Node4</title>
<g id="a_Node000004"><a xlink:href="namespaceuvgv3cbitstream.html#ae98f32f34dd6578e7ceba8a59870dd57" target="_top" xlink:title=" ">
<polygon fill="white" stroke="#666666" points="300,-30 177,-30 177,0 300,0 300,-30"/>
<text text-anchor="start" x="185" y="-18" font-family="Helvetica,sans-Serif" font-size="10.00">uvgv3cbitstream::uvg</text>
<text text-anchor="middle" x="238.5" y="-7" font-family="Helvetica,sans-Serif" font-size="10.00">_bitstream_move</text>
</a>
</g>
</g>
<!-- Node1&#45;&gt;Node4 -->
<g id="edge3_Node000001_Node000004" class="edge">
<title>Node1&#45;&gt;Node4</title>
<g id="a_edge3_Node000001_Node000004"><a xlink:title=" ">
<path fill="none" stroke="#63b8ff" d="M335.52,-28.8C323.77,-27.11 311.69,-25.37 300.22,-23.73"/>
<polygon fill="#63b8ff" stroke="#63b8ff" points="335.34,-32.31 345.74,-30.27 336.34,-25.38 335.34,-32.31"/>
</a>
</g>
</g>
<!-- Node3 -->
<g id="Node000003" class="node">
<title>Node3</title>
<g id="a_Node000003"><a xlink:href="classatlas__context.html#ac6d1b6e1b0782e62993f7f85ec8c9faf" target="_top" xlink:title=" ">
<polygon fill="white" stroke="#666666" points="131,-78 0,-78 0,-48 131,-48 131,-78"/>
<text text-anchor="start" x="8" y="-66" font-family="Helvetica,sans-Serif" font-size="10.00">atlas_context::initialize</text>
<text text-anchor="middle" x="65.5" y="-55" font-family="Helvetica,sans-Serif" font-size="10.00">_atlas_context</text>
</a>
</g>
</g>
<!-- Node2&#45;&gt;Node3 -->
<g id="edge2_Node000002_Node000003" class="edge">
<title>Node2&#45;&gt;Node3</title>
<g id="a_edge2_Node000002_Node000003"><a xlink:title=" ">
<path fill="none" stroke="#63b8ff" d="M156.87,-63C148.24,-63 139.53,-63 131.12,-63"/>
<polygon fill="#63b8ff" stroke="#63b8ff" points="156.96,-66.5 166.96,-63 156.96,-59.5 156.96,-66.5"/>
</a>
</g>
</g>
</g>
</svg>
