<?xml version="1.0" encoding="UTF-8" standalone="no"?>
<!DOCTYPE svg PUBLIC "-//W3C//DTD SVG 1.1//EN"
 "http://www.w3.org/Graphics/SVG/1.1/DTD/svg11.dtd">
<!-- Generated by graphviz version 2.43.0 (0)
 -->
<!-- Title: uvgv3cbitstream::uvg_bitstream_init Pages: 1 -->
<svg width="636pt" height="86pt"
 viewBox="0.00 0.00 636.00 86.00" xmlns="http://www.w3.org/2000/svg" xmlns:xlink="http://www.w3.org/1999/xlink">
<g id="graph0" class="graph" transform="scale(1 1) rotate(0) translate(4 82)">
<title>uvgv3cbitstream::uvg_bitstream_init</title>
<!-- Node1 -->
<g id="Node000001" class="node">
<title>Node1</title>
<g id="a_Node000001"><a xlink:title=" ">
<polygon fill="#999999" stroke="#666666" points="628,-56 505,-56 505,-26 628,-26 628,-56"/>
<text text-anchor="start" x="513" y="-44" font-family="Helvetica,sans-Serif" font-size="10.00">uvgv3cbitstream::uvg</text>
<text text-anchor="middle" x="566.5" y="-33" font-family="Helvetica,sans-Serif" font-size="10.00">_bitstream_init</text>
</a>
</g>
</g>
<!-- Node2 -->
<g id="Node000002" class="node">
<title>Node2</title>
<g id="a_Node000002"><a xlink:href="namespaceuvgv3cbitstream.html#af66f960dd4e0b6fb93b2f8e6a946509d" target="_top" xlink:title=" ">
<polygon fill="white" stroke="#666666" points="310,-78 167,-78 167,-48 310,-48 310,-78"/>
<text text-anchor="start" x="175" y="-66" font-family="Helvetica,sans-Serif" font-size="10.00">uvgv3cbitstream::prepare</text>
<text text-anchor="middle" x="238.5" y="-55" font-family="Helvetica,sans-Serif" font-size="10.00">AtlasContext</text>
</a>
</g>
</g>
<!-- Node1&#45;&gt;Node2 -->
<g id="edge1_Node000001_Node000002" class="edge">
<title>Node1&#45;&gt;Node2</title>
<g id="a_edge1_Node000001_Node000002"><a xlink:title=" ">
<path fill="none" stroke="#63b8ff" d="M494.65,-45.78C440.02,-49.47 364.82,-54.54 310.22,-58.23"/>
<polygon fill="#63b8ff" stroke="#63b8ff" points="495.2,-49.25 504.95,-45.09 494.73,-42.27 495.2,-49.25"/>
</a>
</g>
</g>
<!-- Node4 -->
<g id="Node000004" class="node">
<title>Node4</title>
<g id="a_Node000004"><a xlink:href="namespaceuvgv3cbitstream.html#a5711fa14274003fda46901c0a21f0ed5" target="_top" xlink:title=" ">
<polygon fill="white" stroke="#666666" points="469,-35 346,-35 346,-5 469,-5 469,-35"/>
<text text-anchor="start" x="354" y="-23" font-family="Helvetica,sans-Serif" font-size="10.00">uvgv3cbitstream::uvg</text>
<text text-anchor="middle" x="407.5" y="-12" font-family="Helvetica,sans-Serif" font-size="10.00">_bitstream_clear</text>
</a>
</g>
</g>
<!-- Node1&#45;&gt;Node4 -->
<g id="edge3_Node000001_Node000004" class="edge">
<title>Node1&#45;&gt;Node4</title>
<g id="a_edge3_Node000001_Node000004"><a xlink:title=" ">
<path fill="none" stroke="#63b8ff" d="M494.79,-31.54C486.19,-30.39 477.47,-29.23 469.04,-28.1"/>
<polygon fill="#63b8ff" stroke="#63b8ff" points="494.42,-35.02 504.8,-32.88 495.35,-28.09 494.42,-35.02"/>
</a>
</g>
</g>
<!-- Node3 -->
<g id="Node000003" class="node">
<title>Node3</title>
<g id="a_Node000003"><a xlink:href="classatlas__context.html#ac6d1b6e1b0782e62993f7f85ec8c9faf" target="_top" xlink:title=" ">
<polygon fill="white" stroke="#666666" points="131,-78 0,-78 0,-48 131,-48 131,-78"/>
<text text-anchor="start" x="8" y="-66" font-family="Helvetica,sans-Serif" font-size="10.00">atlas_context::initialize</text>
<text text-anchor="middle" x="65.5" y="-55" font-family="Helvetica,sans-Serif" font-size="10.00">_atlas_context</text>
</a>
</g>
</g>
<!-- Node2&#45;&gt;Node3 -->
<g id="edge2_Node000002_Node000003" class="edge">
<title>Node2&#45;&gt;Node3</title>
<g id="a_edge2_Node000002_Node000003"><a xlink:title=" ">
<path fill="none" stroke="#63b8ff" d="M156.87,-63C148.24,-63 139.53,-63 131.12,-63"/>
<polygon fill="#63b8ff" stroke="#63b8ff" points="156.96,-66.5 166.96,-63 156.96,-59.5 156.96,-66.5"/>
</a>
</g>
</g>
<!-- Node4&#45;&gt;Node2 -->
<g id="edge4_Node000004_Node000002" class="edge">
<title>Node4&#45;&gt;Node2</title>
<g id="a_edge4_Node000004_Node000002"><a xlink:title=" ">
<path fill="none" stroke="#63b8ff" d="M338.03,-37.63C324.7,-41.06 310.84,-44.63 297.88,-47.97"/>
<polygon fill="#63b8ff" stroke="#63b8ff" points="339.28,-40.92 348.09,-35.04 337.53,-34.14 339.28,-40.92"/>
</a>
</g>
</g>
<!-- Node5 -->
<g id="Node000005" class="node">
<title>Node5</title>
<g id="a_Node000005"><a xlink:href="namespaceuvgv3cbitstream.html#ae98f32f34dd6578e7ceba8a59870dd57" target="_top" xlink:title=" ">
<polygon fill="white" stroke="#666666" points="300,-30 177,-30 177,0 300,0 300,-30"/>
<text text-anchor="start" x="185" y="-18" font-family="Helvetica,sans-Serif" font-size="10.00">uvgv3cbitstream::uvg</text>
<text text-anchor="middle" x="238.5" y="-7" font-family="Helvetica,sans-Serif" font-size="10.00">_bitstream_move</text>
</a>
</g>
</g>
<!-- Node4&#45;&gt;Node5 -->
<g id="edge5_Node000004_Node000005" class="edge">
<title>Node4&#45;&gt;Node5</title>
<g id="a_edge5_Node000004_Node000005"><a xlink:title=" ">
<path fill="none" stroke="#63b8ff" d="M335.52,-17.87C323.77,-17.52 311.69,-17.16 300.22,-16.82"/>
<polygon fill="#63b8ff" stroke="#63b8ff" points="335.64,-21.38 345.74,-18.18 335.85,-14.38 335.64,-21.38"/>
</a>
</g>
</g>
</g>
</svg>
