<?xml version="1.0" encoding="UTF-8" standalone="no"?>
<!DOCTYPE svg PUBLIC "-//W3C//DTD SVG 1.1//EN"
 "http://www.w3.org/Graphics/SVG/1.1/DTD/svg11.dtd">
<!-- Generated by graphviz version 2.43.0 (0)
 -->
<!-- Title: src/libuvgvpccenc/utils/types.cpp Pages: 1 -->
<!--zoomable 423 -->

<svg id="main" version="1.1" xmlns="http://www.w3.org/2000/svg" xmlns:xlink="http://www.w3.org/1999/xlink" xml:space="preserve" onload="init(evt)">
<style type="text/css"><![CDATA[
.node, .edge {opacity: 0.7;}
.node.selected, .edge.selected {opacity: 1;}
.edge:hover path { stroke: red; }
.edge:hover polygon { stroke: red; fill: red; }
]]></style>

<defs>
  <circle id="rim" cx="0" cy="0" r="7"/>
  <circle id="rim2" cx="0" cy="0" r="3.5"/>
  <g id="zoomPlus">
    <use xlink:href="#rim" fill="#404040"><set attributeName="fill" to="#808080" begin="zoomplus.mouseover" end="zoomplus.mouseout"/></use>
    <path d="M-4,0h8M0,-4v8" fill="none" stroke="white" stroke-width="1.5" pointer-events="none"/>
  </g>
  <g id="zoomMin">
    <use xlink:href="#rim" fill="#404040"><set attributeName="fill" to="#808080" begin="zoomminus.mouseover" end="zoomminus.mouseout"/></use>
    <path d="M-4,0h8" fill="none" stroke="white" stroke-width="1.5" pointer-events="none"/>
  </g>
  <g id="arrowUp" transform="translate(30 24)">
    <use xlink:href="#rim"/>
    <path pointer-events="none" fill="none" stroke="white" stroke-width="1.5" d="M0,-3.0v7 M-2.5,-0.5L0,-3.0L2.5,-0.5"/>
  </g>
  <g id="arrowRight" transform="rotate(90) translate(36 -43)">
    <use xlink:href="#rim"/>
    <path pointer-events="none" fill="none" stroke="white" stroke-width="1.5" d="M0,-3.0v7 M-2.5,-0.5L0,-3.0L2.5,-0.5"/>
  </g>
  <g id="arrowDown" transform="rotate(180) translate(-30 -48)">
    <use xlink:href="#rim"/>
    <path pointer-events="none" fill="none" stroke="white" stroke-width="1.5" d="M0,-3.0v7 M-2.5,-0.5L0,-3.0L2.5,-0.5"/>
  </g>
  <g id="arrowLeft" transform="rotate(270) translate(-36 17)">
    <use xlink:href="#rim"/>
    <path pointer-events="none" fill="none" stroke="white" stroke-width="1.5" d="M0,-3.0v7 M-2.5,-0.5L0,-3.0L2.5,-0.5"/>
  </g>
  <g id="resetDef">
    <use xlink:href="#rim2" fill="#404040"><set attributeName="fill" to="#808080" begin="reset.mouseover" end="reset.mouseout"/></use>
  </g>
</defs>
<script type="application/ecmascript">
var viewWidth = 1128;
var viewHeight = 423;
var sectionId = 'dynsection-0';
</script>
<script type="application/ecmascript" xlink:href="svg.min.js"/>
<svg id="graph" class="graph">
<g id="viewport">
<title>src/libuvgvpccenc/utils/types.cpp</title>
<!-- Node1 -->
<g id="Node000001" class="node">
<title>Node1</title>
<g id="a_Node000001"><a xlink:title=" ">
<polygon fill="#999999" stroke="#666666" points="810,-415 682,-415 682,-385 810,-385 810,-415"/>
<text text-anchor="start" x="690" y="-403" font-family="Helvetica,sans-Serif" font-size="10.00">src/libuvgvpccenc/utils</text>
<text text-anchor="middle" x="746" y="-392" font-family="Helvetica,sans-Serif" font-size="10.00">/types.cpp</text>
</a>
</g>
</g>
<!-- Node2 -->
<g id="Node000002" class="node">
<title>Node2</title>
<g id="a_Node000002"><a xlink:href="types_8hpp.html" target="_top" xlink:title=" ">
<polygon fill="white" stroke="#666666" points="778.5,-294 713.5,-294 713.5,-275 778.5,-275 778.5,-294"/>
<text text-anchor="middle" x="746" y="-282" font-family="Helvetica,sans-Serif" font-size="10.00">types.hpp</text>
</a>
</g>
</g>
<!-- Node1&#45;&gt;Node2 -->
<g id="edge1_Node000001_Node000002" class="edge">
<title>Node1&#45;&gt;Node2</title>
<g id="a_edge1_Node000001_Node000002"><a xlink:title=" ">
<path fill="none" stroke="#63b8ff" d="M746,-384.63C746,-364.21 746,-326.81 746,-304.24"/>
<polygon fill="#63b8ff" stroke="#63b8ff" points="749.5,-304.23 746,-294.23 742.5,-304.23 749.5,-304.23"/>
</a>
</g>
</g>
<!-- Node19 -->
<g id="Node000019" class="node">
<title>Node19</title>
<g id="a_Node000019"><a xlink:href="log_8hpp.html" target="_top" xlink:title=" ">
<polygon fill="white" stroke="#666666" points="633.5,-74 580.5,-74 580.5,-55 633.5,-55 633.5,-74"/>
<text text-anchor="middle" x="607" y="-62" font-family="Helvetica,sans-Serif" font-size="10.00">log.hpp</text>
</a>
</g>
</g>
<!-- Node1&#45;&gt;Node19 -->
<g id="edge58_Node000001_Node000019" class="edge">
<title>Node1&#45;&gt;Node19</title>
<g id="a_edge58_Node000001_Node000019"><a xlink:title=" ">
<path fill="none" stroke="#63b8ff" d="M740.36,-384.98C725.68,-348.6 685.03,-248.16 650,-165 637.99,-136.48 623.67,-103.54 614.96,-83.63"/>
<polygon fill="#63b8ff" stroke="#63b8ff" points="618.07,-82.02 610.85,-74.26 611.66,-84.83 618.07,-82.02"/>
</a>
</g>
</g>
<!-- Node28 -->
<g id="Node000028" class="node">
<title>Node28</title>
<g id="a_Node000028"><a xlink:href="commonMemory_8hpp.html" target="_top" xlink:title=" ">
<polygon fill="white" stroke="#666666" points="983.5,-349 864.5,-349 864.5,-330 983.5,-330 983.5,-349"/>
<text text-anchor="middle" x="924" y="-337" font-family="Helvetica,sans-Serif" font-size="10.00">commonMemory.hpp</text>
</a>
</g>
</g>
<!-- Node1&#45;&gt;Node28 -->
<g id="edge53_Node000001_Node000028" class="edge">
<title>Node1&#45;&gt;Node28</title>
<g id="a_edge53_Node000001_Node000028"><a xlink:title=" ">
<path fill="none" stroke="#63b8ff" d="M788.64,-384.99C819.09,-374.98 859.59,-361.67 888.33,-352.22"/>
<polygon fill="#63b8ff" stroke="#63b8ff" points="889.57,-355.5 897.97,-349.05 887.38,-348.85 889.57,-355.5"/>
</a>
</g>
</g>
<!-- Node3 -->
<g id="Node000003" class="node">
<title>Node3</title>
<g id="a_Node000003"><a xlink:title=" ">
<polygon fill="#e0e0e0" stroke="#999999" points="1028,-74 986,-74 986,-55 1028,-55 1028,-74"/>
<text text-anchor="middle" x="1007" y="-62" font-family="Helvetica,sans-Serif" font-size="10.00">array</text>
</a>
</g>
</g>
<!-- Node2&#45;&gt;Node3 -->
<g id="edge2_Node000002_Node000003" class="edge">
<title>Node2&#45;&gt;Node3</title>
<g id="a_edge2_Node000002_Node000003"><a xlink:title=" ">
<path fill="none" stroke="#63b8ff" d="M778.86,-280.25C836.31,-274.12 952.2,-259.57 987,-239 1014.19,-222.93 1021.38,-213.75 1032,-184 1044.38,-149.33 1028.13,-106.65 1016.62,-83.14"/>
<polygon fill="#63b8ff" stroke="#63b8ff" points="1019.63,-81.33 1011.93,-74.05 1013.41,-84.54 1019.63,-81.33"/>
</a>
</g>
</g>
<!-- Node4 -->
<g id="Node000004" class="node">
<title>Node4</title>
<g id="a_Node000004"><a xlink:title=" ">
<polygon fill="#e0e0e0" stroke="#999999" points="1106,-239 1054,-239 1054,-220 1106,-220 1106,-239"/>
<text text-anchor="middle" x="1080" y="-227" font-family="Helvetica,sans-Serif" font-size="10.00">cassert</text>
</a>
</g>
</g>
<!-- Node2&#45;&gt;Node4 -->
<g id="edge3_Node000002_Node000004" class="edge">
<title>Node2&#45;&gt;Node4</title>
<g id="a_edge3_Node000002_Node000004"><a xlink:title=" ">
<path fill="none" stroke="#63b8ff" d="M778.73,-279.19C833.14,-271.88 945.53,-256.17 1040,-239 1041.26,-238.77 1042.54,-238.53 1043.83,-238.29"/>
<polygon fill="#63b8ff" stroke="#63b8ff" points="1044.67,-241.69 1053.79,-236.3 1043.3,-234.82 1044.67,-241.69"/>
</a>
</g>
</g>
<!-- Node5 -->
<g id="Node000005" class="node">
<title>Node5</title>
<g id="a_Node000005"><a xlink:title=" ">
<polygon fill="#e0e0e0" stroke="#999999" points="400.5,-74 347.5,-74 347.5,-55 400.5,-55 400.5,-74"/>
<text text-anchor="middle" x="374" y="-62" font-family="Helvetica,sans-Serif" font-size="10.00">cstddef</text>
</a>
</g>
</g>
<!-- Node2&#45;&gt;Node5 -->
<g id="edge4_Node000002_Node000005" class="edge">
<title>Node2&#45;&gt;Node5</title>
<g id="a_edge4_Node000002_Node000005"><a xlink:title=" ">
<path fill="none" stroke="#63b8ff" d="M713.34,-282.46C619.72,-279.17 355.52,-267.4 330,-239 289.56,-194 336.08,-117.1 360.68,-82.84"/>
<polygon fill="#63b8ff" stroke="#63b8ff" points="363.81,-84.49 366.95,-74.37 358.19,-80.33 363.81,-84.49"/>
</a>
</g>
</g>
<!-- Node6 -->
<g id="Node000006" class="node">
<title>Node6</title>
<g id="a_Node000006"><a xlink:title=" ">
<polygon fill="#e0e0e0" stroke="#999999" points="746,-74 696,-74 696,-55 746,-55 746,-74"/>
<text text-anchor="middle" x="721" y="-62" font-family="Helvetica,sans-Serif" font-size="10.00">cstdint</text>
</a>
</g>
</g>
<!-- Node2&#45;&gt;Node6 -->
<g id="edge5_Node000002_Node000006" class="edge">
<title>Node2&#45;&gt;Node6</title>
<g id="a_edge5_Node000002_Node000006"><a xlink:title=" ">
<path fill="none" stroke="#63b8ff" d="M744.84,-274.8C741.74,-251.31 733.05,-184.61 727,-129 725.37,-114 723.77,-96.97 722.64,-84.33"/>
<polygon fill="#63b8ff" stroke="#63b8ff" points="726.11,-83.79 721.74,-74.14 719.13,-84.4 726.11,-83.79"/>
</a>
</g>
</g>
<!-- Node7 -->
<g id="Node000007" class="node">
<title>Node7</title>
<g id="a_Node000007"><a xlink:title=" ">
<polygon fill="#e0e0e0" stroke="#999999" points="870,-239 812,-239 812,-220 870,-220 870,-239"/>
<text text-anchor="middle" x="841" y="-227" font-family="Helvetica,sans-Serif" font-size="10.00">memory</text>
</a>
</g>
</g>
<!-- Node2&#45;&gt;Node7 -->
<g id="edge6_Node000002_Node000007" class="edge">
<title>Node2&#45;&gt;Node7</title>
<g id="a_edge6_Node000002_Node000007"><a xlink:title=" ">
<path fill="none" stroke="#63b8ff" d="M761.26,-274.98C776.13,-266.69 798.98,-253.94 816.42,-244.22"/>
<polygon fill="#63b8ff" stroke="#63b8ff" points="818.43,-247.1 825.46,-239.17 815.02,-240.99 818.43,-247.1"/>
</a>
</g>
</g>
<!-- Node8 -->
<g id="Node000008" class="node">
<title>Node8</title>
<g id="a_Node000008"><a xlink:title=" ">
<polygon fill="#e0e0e0" stroke="#999999" points="959.5,-239 888.5,-239 888.5,-220 959.5,-220 959.5,-239"/>
<text text-anchor="middle" x="924" y="-227" font-family="Helvetica,sans-Serif" font-size="10.00">semaphore</text>
</a>
</g>
</g>
<!-- Node2&#45;&gt;Node8 -->
<g id="edge7_Node000002_Node000008" class="edge">
<title>Node2&#45;&gt;Node8</title>
<g id="a_edge7_Node000002_Node000008"><a xlink:title=" ">
<path fill="none" stroke="#63b8ff" d="M774.6,-274.98C804.61,-266.05 851.98,-251.94 885.32,-242.02"/>
<polygon fill="#63b8ff" stroke="#63b8ff" points="886.59,-245.29 895.18,-239.08 884.59,-238.58 886.59,-245.29"/>
</a>
</g>
</g>
<!-- Node9 -->
<g id="Node000009" class="node">
<title>Node9</title>
<g id="a_Node000009"><a xlink:title=" ">
<polygon fill="#e0e0e0" stroke="#999999" points="894,-74 838,-74 838,-55 894,-55 894,-74"/>
<text text-anchor="middle" x="866" y="-62" font-family="Helvetica,sans-Serif" font-size="10.00">sstream</text>
</a>
</g>
</g>
<!-- Node2&#45;&gt;Node9 -->
<g id="edge8_Node000002_Node000009" class="edge">
<title>Node2&#45;&gt;Node9</title>
<g id="a_edge8_Node000002_Node000009"><a xlink:title=" ">
<path fill="none" stroke="#63b8ff" d="M752.87,-274.97C770.74,-252.43 819.19,-188.87 847,-129 853.67,-114.63 858.66,-97.35 861.85,-84.45"/>
<polygon fill="#63b8ff" stroke="#63b8ff" points="865.33,-84.95 864.19,-74.42 858.51,-83.37 865.33,-84.95"/>
</a>
</g>
</g>
<!-- Node10 -->
<g id="Node000010" class="node">
<title>Node10</title>
<g id="a_Node000010"><a xlink:title=" ">
<polygon fill="#e0e0e0" stroke="#999999" points="98,-19 54,-19 54,0 98,0 98,-19"/>
<text text-anchor="middle" x="76" y="-7" font-family="Helvetica,sans-Serif" font-size="10.00">string</text>
</a>
</g>
</g>
<!-- Node2&#45;&gt;Node10 -->
<g id="edge9_Node000002_Node000010" class="edge">
<title>Node2&#45;&gt;Node10</title>
<g id="a_edge9_Node000002_Node000010"><a xlink:title=" ">
<path fill="none" stroke="#63b8ff" d="M713.47,-282.28C569.88,-276.45 0,-248.7 0,-175.5 0,-175.5 0,-175.5 0,-118.5 0,-79.47 33.61,-44.58 56.13,-25.6"/>
<polygon fill="#63b8ff" stroke="#63b8ff" points="58.56,-28.14 64.12,-19.12 54.15,-22.7 58.56,-28.14"/>
</a>
</g>
</g>
<!-- Node11 -->
<g id="Node000011" class="node">
<title>Node11</title>
<g id="a_Node000011"><a xlink:title=" ">
<polygon fill="#e0e0e0" stroke="#999999" points="457.5,-129 410.5,-129 410.5,-110 457.5,-110 457.5,-129"/>
<text text-anchor="middle" x="434" y="-117" font-family="Helvetica,sans-Serif" font-size="10.00">vector</text>
</a>
</g>
</g>
<!-- Node2&#45;&gt;Node11 -->
<g id="edge10_Node000002_Node000011" class="edge">
<title>Node2&#45;&gt;Node11</title>
<g id="a_edge10_Node000002_Node000011"><a xlink:title=" ">
<path fill="none" stroke="#63b8ff" d="M725.36,-274.85C696.13,-262.61 641.01,-239.54 594,-220 555.36,-203.93 542.58,-206.02 507,-184 485.27,-170.55 463.58,-150.66 449.57,-136.73"/>
<polygon fill="#63b8ff" stroke="#63b8ff" points="451.77,-133.98 442.26,-129.32 446.78,-138.9 451.77,-133.98"/>
</a>
</g>
</g>
<!-- Node12 -->
<g id="Node000012" class="node">
<title>Node12</title>
<g id="a_Node000012"><a xlink:href="uvgFrame_8hpp.html" target="_top" xlink:title=" ">
<polygon fill="white" stroke="#666666" points="479,-239 339,-239 339,-220 479,-220 479,-239"/>
<text text-anchor="middle" x="409" y="-227" font-family="Helvetica,sans-Serif" font-size="10.00">uvgformat/uvgFrame.hpp</text>
</a>
</g>
</g>
<!-- Node2&#45;&gt;Node12 -->
<g id="edge11_Node000002_Node000012" class="edge">
<title>Node2&#45;&gt;Node12</title>
<g id="a_edge11_Node000002_Node000012"><a xlink:title=" ">
<path fill="none" stroke="#63b8ff" d="M713.38,-278.37C658.12,-269.68 545.12,-251.91 473.43,-240.63"/>
<polygon fill="#63b8ff" stroke="#63b8ff" points="473.59,-237.11 463.16,-239.02 472.5,-244.03 473.59,-237.11"/>
</a>
</g>
</g>
<!-- Node13 -->
<g id="Node000013" class="node">
<title>Node13</title>
<g id="a_Node000013"><a xlink:href="uvgFramePayload_8hpp.html" target="_top" xlink:title=" ">
<polygon fill="white" stroke="#666666" points="641.5,-184 516.5,-184 516.5,-165 641.5,-165 641.5,-184"/>
<text text-anchor="middle" x="579" y="-172" font-family="Helvetica,sans-Serif" font-size="10.00">uvgFramePayload.hpp</text>
</a>
</g>
</g>
<!-- Node2&#45;&gt;Node13 -->
<g id="edge33_Node000002_Node000013" class="edge">
<title>Node2&#45;&gt;Node13</title>
<g id="a_edge33_Node000002_Node000013"><a xlink:title=" ">
<path fill="none" stroke="#63b8ff" d="M732.62,-274.84C703.91,-256.28 636.19,-212.49 601.04,-189.75"/>
<polygon fill="#63b8ff" stroke="#63b8ff" points="602.75,-186.69 592.45,-184.2 598.94,-192.57 602.75,-186.69"/>
</a>
</g>
</g>
<!-- Node16 -->
<g id="Node000016" class="node">
<title>Node16</title>
<g id="a_Node000016"><a xlink:href="utils_8hpp.html" target="_top" xlink:title=" ">
<polygon fill="white" stroke="#666666" points="837.5,-129 736.5,-129 736.5,-110 837.5,-110 837.5,-129"/>
<text text-anchor="middle" x="787" y="-117" font-family="Helvetica,sans-Serif" font-size="10.00">uvgutils/utils.hpp</text>
</a>
</g>
</g>
<!-- Node2&#45;&gt;Node16 -->
<g id="edge34_Node000002_Node000016" class="edge">
<title>Node2&#45;&gt;Node16</title>
<g id="a_edge34_Node000002_Node000016"><a xlink:title=" ">
<path fill="none" stroke="#63b8ff" d="M748.2,-274.74C754.63,-249.2 773.43,-174.43 782.29,-139.23"/>
<polygon fill="#63b8ff" stroke="#63b8ff" points="785.74,-139.86 784.78,-129.31 778.95,-138.15 785.74,-139.86"/>
</a>
</g>
</g>
<!-- Node24 -->
<g id="Node000024" class="node">
<title>Node24</title>
<g id="a_Node000024"><a xlink:href="constants_8hpp.html" target="_top" xlink:title=" ">
<polygon fill="white" stroke="#666666" points="1022.5,-184 937.5,-184 937.5,-165 1022.5,-165 1022.5,-184"/>
<text text-anchor="middle" x="980" y="-172" font-family="Helvetica,sans-Serif" font-size="10.00">constants.hpp</text>
</a>
</g>
</g>
<!-- Node2&#45;&gt;Node24 -->
<g id="edge35_Node000002_Node000024" class="edge">
<title>Node2&#45;&gt;Node24</title>
<g id="a_edge35_Node000002_Node000024"><a xlink:title=" ">
<path fill="none" stroke="#63b8ff" d="M778.92,-281.41C834.4,-277.18 943.03,-265.64 969,-239 980.34,-227.37 982.35,-208.51 981.98,-194.36"/>
<polygon fill="#63b8ff" stroke="#63b8ff" points="985.46,-193.99 981.29,-184.25 978.47,-194.46 985.46,-193.99"/>
</a>
</g>
</g>
<!-- Node25 -->
<g id="Node000025" class="node">
<title>Node25</title>
<g id="a_Node000025"><a xlink:href="libuvgvpccenc_2utils_2parameters_8hpp.html" target="_top" xlink:title=" ">
<polygon fill="white" stroke="#666666" points="460,-184 366,-184 366,-165 460,-165 460,-184"/>
<text text-anchor="middle" x="413" y="-172" font-family="Helvetica,sans-Serif" font-size="10.00">parameters.hpp</text>
</a>
</g>
</g>
<!-- Node2&#45;&gt;Node25 -->
<g id="edge43_Node000002_Node000025" class="edge">
<title>Node2&#45;&gt;Node25</title>
<g id="a_edge43_Node000002_Node000025"><a xlink:title=" ">
<path fill="none" stroke="#63b8ff" d="M719.59,-274.94C660.33,-255.72 516.69,-209.13 449.18,-187.24"/>
<polygon fill="#63b8ff" stroke="#63b8ff" points="450,-183.82 439.41,-184.07 447.84,-190.48 450,-183.82"/>
</a>
</g>
</g>
<!-- Node12&#45;&gt;Node5 -->
<g id="edge12_Node000012_Node000005" class="edge">
<title>Node12&#45;&gt;Node5</title>
<g id="a_edge12_Node000012_Node000005"><a xlink:title=" ">
<path fill="none" stroke="#63b8ff" d="M392.97,-219.95C380.59,-212.35 364.35,-199.97 357,-184 341.71,-150.78 355.47,-107.24 365.57,-83.27"/>
<polygon fill="#63b8ff" stroke="#63b8ff" points="368.82,-84.56 369.71,-74 362.43,-81.71 368.82,-84.56"/>
</a>
</g>
</g>
<!-- Node12&#45;&gt;Node10 -->
<g id="edge13_Node000012_Node000010" class="edge">
<title>Node12&#45;&gt;Node10</title>
<g id="a_edge13_Node000012_Node000010"><a xlink:title=" ">
<path fill="none" stroke="#63b8ff" d="M338.96,-227.75C263.13,-222.94 144.18,-203.05 78,-129 53.53,-101.61 62.21,-54.81 69.71,-28.98"/>
<polygon fill="#63b8ff" stroke="#63b8ff" points="73.09,-29.9 72.75,-19.31 66.41,-27.8 73.09,-29.9"/>
</a>
</g>
</g>
<!-- Node12&#45;&gt;Node13 -->
<g id="edge14_Node000012_Node000013" class="edge">
<title>Node12&#45;&gt;Node13</title>
<g id="a_edge14_Node000012_Node000013"><a xlink:title=" ">
<path fill="none" stroke="#63b8ff" d="M436.31,-219.98C464.85,-211.09 509.83,-197.07 541.64,-187.15"/>
<polygon fill="#63b8ff" stroke="#63b8ff" points="542.97,-190.4 551.47,-184.08 540.88,-183.72 542.97,-190.4"/>
</a>
</g>
</g>
<!-- Node13&#45;&gt;Node6 -->
<g id="edge15_Node000013_Node000006" class="edge">
<title>Node13&#45;&gt;Node6</title>
<g id="a_edge15_Node000013_Node000006"><a xlink:title=" ">
<path fill="none" stroke="#63b8ff" d="M590.62,-164.66C614.98,-146.14 671.59,-103.08 701.57,-80.28"/>
<polygon fill="#63b8ff" stroke="#63b8ff" points="703.78,-83 709.62,-74.16 699.54,-77.43 703.78,-83"/>
</a>
</g>
</g>
<!-- Node13&#45;&gt;Node11 -->
<g id="edge18_Node000013_Node000011" class="edge">
<title>Node13&#45;&gt;Node11</title>
<g id="a_edge18_Node000013_Node000011"><a xlink:title=" ">
<path fill="none" stroke="#63b8ff" d="M555.7,-164.98C531.75,-156.23 494.22,-142.51 467.17,-132.62"/>
<polygon fill="#63b8ff" stroke="#63b8ff" points="468.31,-129.32 457.72,-129.17 465.91,-135.89 468.31,-129.32"/>
</a>
</g>
</g>
<!-- Node14 -->
<g id="Node000014" class="node">
<title>Node14</title>
<g id="a_Node000014"><a xlink:title=" ">
<polygon fill="#e0e0e0" stroke="#999999" points="325.5,-74 260.5,-74 260.5,-55 325.5,-55 325.5,-74"/>
<text text-anchor="middle" x="293" y="-62" font-family="Helvetica,sans-Serif" font-size="10.00">stdexcept</text>
</a>
</g>
</g>
<!-- Node13&#45;&gt;Node14 -->
<g id="edge16_Node000013_Node000014" class="edge">
<title>Node13&#45;&gt;Node14</title>
<g id="a_edge16_Node000013_Node000014"><a xlink:title=" ">
<path fill="none" stroke="#63b8ff" d="M564.7,-164.85C539.03,-149.41 485.94,-118.01 466,-110 442.55,-100.58 378.87,-85.13 335.67,-75.13"/>
<polygon fill="#63b8ff" stroke="#63b8ff" points="336.24,-71.67 325.71,-72.84 334.67,-78.49 336.24,-71.67"/>
</a>
</g>
</g>
<!-- Node15 -->
<g id="Node000015" class="node">
<title>Node15</title>
<g id="a_Node000015"><a xlink:title=" ">
<polygon fill="#e0e0e0" stroke="#999999" points="565.5,-129 514.5,-129 514.5,-110 565.5,-110 565.5,-129"/>
<text text-anchor="middle" x="540" y="-117" font-family="Helvetica,sans-Serif" font-size="10.00">variant</text>
</a>
</g>
</g>
<!-- Node13&#45;&gt;Node15 -->
<g id="edge17_Node000013_Node000015" class="edge">
<title>Node13&#45;&gt;Node15</title>
<g id="a_edge17_Node000013_Node000015"><a xlink:title=" ">
<path fill="none" stroke="#63b8ff" d="M572.56,-164.75C567.11,-157.34 559.14,-146.5 552.44,-137.41"/>
<polygon fill="#63b8ff" stroke="#63b8ff" points="555.07,-135.07 546.32,-129.09 549.43,-139.22 555.07,-135.07"/>
</a>
</g>
</g>
<!-- Node13&#45;&gt;Node16 -->
<g id="edge19_Node000013_Node000016" class="edge">
<title>Node13&#45;&gt;Node16</title>
<g id="a_edge19_Node000013_Node000016"><a xlink:title=" ">
<path fill="none" stroke="#63b8ff" d="M612.42,-164.98C647.94,-155.93 704.27,-141.58 743.3,-131.64"/>
<polygon fill="#63b8ff" stroke="#63b8ff" points="744.49,-134.94 753.32,-129.08 742.76,-128.16 744.49,-134.94"/>
</a>
</g>
</g>
<!-- Node16&#45;&gt;Node3 -->
<g id="edge20_Node000016_Node000003" class="edge">
<title>Node16&#45;&gt;Node3</title>
<g id="a_edge20_Node000016_Node000003"><a xlink:title=" ">
<path fill="none" stroke="#63b8ff" d="M822.35,-109.98C864.81,-99.76 935.36,-82.76 975.86,-73"/>
<polygon fill="#63b8ff" stroke="#63b8ff" points="976.81,-76.37 985.71,-70.63 975.17,-69.57 976.81,-76.37"/>
</a>
</g>
</g>
<!-- Node16&#45;&gt;Node5 -->
<g id="edge21_Node000016_Node000005" class="edge">
<title>Node16&#45;&gt;Node5</title>
<g id="a_edge21_Node000016_Node000005"><a xlink:title=" ">
<path fill="none" stroke="#63b8ff" d="M736.36,-112C652.19,-101.2 485.41,-79.8 411.16,-70.27"/>
<polygon fill="#63b8ff" stroke="#63b8ff" points="411.26,-66.75 400.9,-68.95 410.37,-73.7 411.26,-66.75"/>
</a>
</g>
</g>
<!-- Node16&#45;&gt;Node6 -->
<g id="edge22_Node000016_Node000006" class="edge">
<title>Node16&#45;&gt;Node6</title>
<g id="a_edge22_Node000016_Node000006"><a xlink:title=" ">
<path fill="none" stroke="#63b8ff" d="M776.4,-109.98C766.54,-102.07 751.65,-90.11 739.78,-80.58"/>
<polygon fill="#63b8ff" stroke="#63b8ff" points="741.79,-77.7 731.8,-74.17 737.4,-83.16 741.79,-77.7"/>
</a>
</g>
</g>
<!-- Node16&#45;&gt;Node9 -->
<g id="edge25_Node000016_Node000009" class="edge">
<title>Node16&#45;&gt;Node9</title>
<g id="a_edge25_Node000016_Node000009"><a xlink:title=" ">
<path fill="none" stroke="#63b8ff" d="M799.69,-109.98C811.83,-101.84 830.36,-89.41 844.75,-79.76"/>
<polygon fill="#63b8ff" stroke="#63b8ff" points="846.72,-82.65 853.08,-74.17 842.82,-76.84 846.72,-82.65"/>
</a>
</g>
</g>
<!-- Node17 -->
<g id="Node000017" class="node">
<title>Node17</title>
<g id="a_Node000017"><a xlink:title=" ">
<polygon fill="#e0e0e0" stroke="#999999" points="815,-19 759,-19 759,0 815,0 815,-19"/>
<text text-anchor="middle" x="787" y="-7" font-family="Helvetica,sans-Serif" font-size="10.00">iomanip</text>
</a>
</g>
</g>
<!-- Node16&#45;&gt;Node17 -->
<g id="edge23_Node000016_Node000017" class="edge">
<title>Node16&#45;&gt;Node17</title>
<g id="a_edge23_Node000016_Node000017"><a xlink:title=" ">
<path fill="none" stroke="#63b8ff" d="M787,-109.66C787,-92.17 787,-52.8 787,-29.27"/>
<polygon fill="#63b8ff" stroke="#63b8ff" points="790.5,-29.16 787,-19.16 783.5,-29.16 790.5,-29.16"/>
</a>
</g>
</g>
<!-- Node18 -->
<g id="Node000018" class="node">
<title>Node18</title>
<g id="a_Node000018"><a xlink:title=" ">
<polygon fill="#e0e0e0" stroke="#999999" points="962,-74 918,-74 918,-55 962,-55 962,-74"/>
<text text-anchor="middle" x="940" y="-62" font-family="Helvetica,sans-Serif" font-size="10.00">limits</text>
</a>
</g>
</g>
<!-- Node16&#45;&gt;Node18 -->
<g id="edge24_Node000016_Node000018" class="edge">
<title>Node16&#45;&gt;Node18</title>
<g id="a_edge24_Node000016_Node000018"><a xlink:title=" ">
<path fill="none" stroke="#63b8ff" d="M811.58,-109.98C837.88,-100.88 879.67,-86.4 908.39,-76.45"/>
<polygon fill="#63b8ff" stroke="#63b8ff" points="909.66,-79.71 917.96,-73.13 907.37,-73.1 909.66,-79.71"/>
</a>
</g>
</g>
<!-- Node16&#45;&gt;Node19 -->
<g id="edge26_Node000016_Node000019" class="edge">
<title>Node16&#45;&gt;Node19</title>
<g id="a_edge26_Node000016_Node000019"><a xlink:title=" ">
<path fill="none" stroke="#63b8ff" d="M758.08,-109.98C726.92,-100.81 677.26,-86.19 643.45,-76.23"/>
<polygon fill="#63b8ff" stroke="#63b8ff" points="644.08,-72.77 633.5,-73.3 642.11,-79.49 644.08,-72.77"/>
</a>
</g>
</g>
<!-- Node19&#45;&gt;Node10 -->
<g id="edge32_Node000019_Node000010" class="edge">
<title>Node19&#45;&gt;Node10</title>
<g id="a_edge32_Node000019_Node000010"><a xlink:title=" ">
<path fill="none" stroke="#63b8ff" d="M580.3,-60.84C491.31,-51.95 204.97,-23.37 108.26,-13.72"/>
<polygon fill="#63b8ff" stroke="#63b8ff" points="108.5,-10.23 98.2,-12.72 107.8,-17.19 108.5,-10.23"/>
</a>
</g>
</g>
<!-- Node19&#45;&gt;Node17 -->
<g id="edge29_Node000019_Node000017" class="edge">
<title>Node19&#45;&gt;Node17</title>
<g id="a_edge29_Node000019_Node000017"><a xlink:title=" ">
<path fill="none" stroke="#63b8ff" d="M633.56,-55.68C664.09,-46.69 714.43,-31.87 749.08,-21.67"/>
<polygon fill="#63b8ff" stroke="#63b8ff" points="750.24,-24.97 758.85,-18.79 748.27,-18.26 750.24,-24.97"/>
</a>
</g>
</g>
<!-- Node20 -->
<g id="Node000020" class="node">
<title>Node20</title>
<g id="a_Node000020"><a xlink:title=" ">
<polygon fill="#e0e0e0" stroke="#999999" points="512,-19 462,-19 462,0 512,0 512,-19"/>
<text text-anchor="middle" x="487" y="-7" font-family="Helvetica,sans-Serif" font-size="10.00">chrono</text>
</a>
</g>
</g>
<!-- Node19&#45;&gt;Node20 -->
<g id="edge27_Node000019_Node000020" class="edge">
<title>Node19&#45;&gt;Node20</title>
<g id="a_edge27_Node000019_Node000020"><a xlink:title=" ">
<path fill="none" stroke="#63b8ff" d="M587.72,-54.98C568.33,-46.42 538.19,-33.11 515.93,-23.28"/>
<polygon fill="#63b8ff" stroke="#63b8ff" points="517.19,-20.01 506.63,-19.17 514.36,-26.41 517.19,-20.01"/>
</a>
</g>
</g>
<!-- Node21 -->
<g id="Node000021" class="node">
<title>Node21</title>
<g id="a_Node000021"><a xlink:title=" ">
<polygon fill="#e0e0e0" stroke="#999999" points="583.5,-19 530.5,-19 530.5,0 583.5,0 583.5,-19"/>
<text text-anchor="middle" x="557" y="-7" font-family="Helvetica,sans-Serif" font-size="10.00">cstdarg</text>
</a>
</g>
</g>
<!-- Node19&#45;&gt;Node21 -->
<g id="edge28_Node000019_Node000021" class="edge">
<title>Node19&#45;&gt;Node21</title>
<g id="a_edge28_Node000019_Node000021"><a xlink:title=" ">
<path fill="none" stroke="#63b8ff" d="M598.74,-54.75C591.54,-47.11 580.89,-35.82 572.15,-26.56"/>
<polygon fill="#63b8ff" stroke="#63b8ff" points="574.51,-23.96 565.1,-19.09 569.42,-28.76 574.51,-23.96"/>
</a>
</g>
</g>
<!-- Node22 -->
<g id="Node000022" class="node">
<title>Node22</title>
<g id="a_Node000022"><a xlink:title=" ">
<polygon fill="#e0e0e0" stroke="#999999" points="662,-19 602,-19 602,0 662,0 662,-19"/>
<text text-anchor="middle" x="632" y="-7" font-family="Helvetica,sans-Serif" font-size="10.00">iostream</text>
</a>
</g>
</g>
<!-- Node19&#45;&gt;Node22 -->
<g id="edge30_Node000019_Node000022" class="edge">
<title>Node19&#45;&gt;Node22</title>
<g id="a_edge30_Node000019_Node000022"><a xlink:title=" ">
<path fill="none" stroke="#63b8ff" d="M611.13,-54.75C614.51,-47.57 619.42,-37.18 623.62,-28.27"/>
<polygon fill="#63b8ff" stroke="#63b8ff" points="626.85,-29.63 627.95,-19.09 620.52,-26.64 626.85,-29.63"/>
</a>
</g>
</g>
<!-- Node23 -->
<g id="Node000023" class="node">
<title>Node23</title>
<g id="a_Node000023"><a xlink:title=" ">
<polygon fill="#e0e0e0" stroke="#999999" points="728,-19 680,-19 680,0 728,0 728,-19"/>
<text text-anchor="middle" x="704" y="-7" font-family="Helvetica,sans-Serif" font-size="10.00">mutex</text>
</a>
</g>
</g>
<!-- Node19&#45;&gt;Node23 -->
<g id="edge31_Node000019_Node000023" class="edge">
<title>Node19&#45;&gt;Node23</title>
<g id="a_edge31_Node000019_Node000023"><a xlink:title=" ">
<path fill="none" stroke="#63b8ff" d="M622.58,-54.98C637.77,-46.69 661.1,-33.94 678.9,-24.22"/>
<polygon fill="#63b8ff" stroke="#63b8ff" points="681.03,-27.04 688.13,-19.17 677.68,-20.89 681.03,-27.04"/>
</a>
</g>
</g>
<!-- Node24&#45;&gt;Node3 -->
<g id="edge36_Node000024_Node000003" class="edge">
<title>Node24&#45;&gt;Node3</title>
<g id="a_edge36_Node000024_Node000003"><a xlink:title=" ">
<path fill="none" stroke="#63b8ff" d="M983.06,-164.71C986.1,-155.79 990.75,-141.54 994,-129 997.88,-114 1001.35,-96.77 1003.72,-84.05"/>
<polygon fill="#63b8ff" stroke="#63b8ff" points="1007.17,-84.66 1005.51,-74.19 1000.28,-83.41 1007.17,-84.66"/>
</a>
</g>
</g>
<!-- Node24&#45;&gt;Node5 -->
<g id="edge37_Node000024_Node000005" class="edge">
<title>Node24&#45;&gt;Node5</title>
<g id="a_edge37_Node000024_Node000005"><a xlink:title=" ">
<path fill="none" stroke="#63b8ff" d="M937.46,-166.07C887.18,-157.28 800.99,-142.16 727,-129 611.43,-108.44 474.66,-83.73 410.57,-72.13"/>
<polygon fill="#63b8ff" stroke="#63b8ff" points="411.03,-68.65 400.56,-70.31 409.78,-75.54 411.03,-68.65"/>
</a>
</g>
</g>
<!-- Node24&#45;&gt;Node6 -->
<g id="edge38_Node000024_Node000006" class="edge">
<title>Node24&#45;&gt;Node6</title>
<g id="a_edge38_Node000024_Node000006"><a xlink:title=" ">
<path fill="none" stroke="#63b8ff" d="M963.46,-164.9C938.56,-152.12 889.79,-127.71 847,-110 816.72,-97.47 781.5,-85.22 756,-76.75"/>
<polygon fill="#63b8ff" stroke="#63b8ff" points="756.99,-73.39 746.4,-73.59 754.8,-80.04 756.99,-73.39"/>
</a>
</g>
</g>
<!-- Node24&#45;&gt;Node9 -->
<g id="edge41_Node000024_Node000009" class="edge">
<title>Node24&#45;&gt;Node9</title>
<g id="a_edge41_Node000024_Node000009"><a xlink:title=" ">
<path fill="none" stroke="#63b8ff" d="M971.82,-164.63C960.17,-152.12 938.02,-128.75 918,-110 907.16,-99.85 894.51,-89 884.4,-80.56"/>
<polygon fill="#63b8ff" stroke="#63b8ff" points="886.53,-77.78 876.6,-74.1 882.07,-83.17 886.53,-77.78"/>
</a>
</g>
</g>
<!-- Node24&#45;&gt;Node16 -->
<g id="edge42_Node000024_Node000016" class="edge">
<title>Node24&#45;&gt;Node16</title>
<g id="a_edge42_Node000024_Node000016"><a xlink:title=" ">
<path fill="none" stroke="#63b8ff" d="M948.99,-164.98C916.17,-155.97 864.2,-141.7 828.01,-131.76"/>
<polygon fill="#63b8ff" stroke="#63b8ff" points="828.82,-128.36 818.25,-129.08 826.97,-135.11 828.82,-128.36"/>
</a>
</g>
</g>
<!-- Node24&#45;&gt;Node17 -->
<g id="edge39_Node000024_Node000017" class="edge">
<title>Node24&#45;&gt;Node17</title>
<g id="a_edge39_Node000024_Node000017"><a xlink:title=" ">
<path fill="none" stroke="#63b8ff" d="M990.14,-164.93C1013.48,-144.22 1066.76,-90.53 1037,-55 1010.51,-23.37 889.11,-14.21 825.75,-11.56"/>
<polygon fill="#63b8ff" stroke="#63b8ff" points="825.49,-8.05 815.37,-11.17 825.23,-15.04 825.49,-8.05"/>
</a>
</g>
</g>
<!-- Node24&#45;&gt;Node18 -->
<g id="edge40_Node000024_Node000018" class="edge">
<title>Node24&#45;&gt;Node18</title>
<g id="a_edge40_Node000024_Node000018"><a xlink:title=" ">
<path fill="none" stroke="#63b8ff" d="M976.73,-164.66C970.19,-147.01 955.4,-107.09 946.72,-83.64"/>
<polygon fill="#63b8ff" stroke="#63b8ff" points="949.96,-82.32 943.21,-74.16 943.4,-84.75 949.96,-82.32"/>
</a>
</g>
</g>
<!-- Node25&#45;&gt;Node5 -->
<g id="edge44_Node000025_Node000005" class="edge">
<title>Node25&#45;&gt;Node5</title>
<g id="a_edge44_Node000025_Node000005"><a xlink:title=" ">
<path fill="none" stroke="#63b8ff" d="M409.81,-164.66C403.43,-147.01 389.02,-107.09 380.55,-83.64"/>
<polygon fill="#63b8ff" stroke="#63b8ff" points="383.82,-82.38 377.13,-74.16 377.23,-84.75 383.82,-82.38"/>
</a>
</g>
</g>
<!-- Node25&#45;&gt;Node10 -->
<g id="edge45_Node000025_Node000010" class="edge">
<title>Node25&#45;&gt;Node10</title>
<g id="a_edge45_Node000025_Node000010"><a xlink:title=" ">
<path fill="none" stroke="#63b8ff" d="M365.78,-168.38C279.56,-158.82 104.58,-138.39 95,-129 68.43,-102.95 69.68,-55.59 72.87,-29.31"/>
<polygon fill="#63b8ff" stroke="#63b8ff" points="76.37,-29.57 74.33,-19.18 69.44,-28.57 76.37,-29.57"/>
</a>
</g>
</g>
<!-- Node25&#45;&gt;Node11 -->
<g id="edge46_Node000025_Node000011" class="edge">
<title>Node25&#45;&gt;Node11</title>
<g id="a_edge46_Node000025_Node000011"><a xlink:title=" ">
<path fill="none" stroke="#63b8ff" d="M416.47,-164.75C419.28,-157.65 423.34,-147.4 426.85,-138.56"/>
<polygon fill="#63b8ff" stroke="#63b8ff" points="430.17,-139.68 430.6,-129.09 423.66,-137.1 430.17,-139.68"/>
</a>
</g>
</g>
<!-- Node25&#45;&gt;Node16 -->
<g id="edge52_Node000025_Node000016" class="edge">
<title>Node25&#45;&gt;Node16</title>
<g id="a_edge52_Node000025_Node000016"><a xlink:title=" ">
<path fill="none" stroke="#63b8ff" d="M460.37,-166.79C527.95,-157.21 652.06,-139.62 726.31,-129.1"/>
<polygon fill="#63b8ff" stroke="#63b8ff" points="727.03,-132.53 736.44,-127.67 726.05,-125.6 727.03,-132.53"/>
</a>
</g>
</g>
<!-- Node26 -->
<g id="Node000026" class="node">
<title>Node26</title>
<g id="a_Node000026"><a xlink:href="parameterManager_8hpp.html" target="_top" xlink:title=" ">
<polygon fill="white" stroke="#666666" points="277.5,-129 104.5,-129 104.5,-110 277.5,-110 277.5,-129"/>
<text text-anchor="middle" x="191" y="-117" font-family="Helvetica,sans-Serif" font-size="10.00">uvgutils/parameterManager.hpp</text>
</a>
</g>
</g>
<!-- Node25&#45;&gt;Node26 -->
<g id="edge47_Node000025_Node000026" class="edge">
<title>Node25&#45;&gt;Node26</title>
<g id="a_edge47_Node000025_Node000026"><a xlink:title=" ">
<path fill="none" stroke="#63b8ff" d="M377.33,-164.98C339.17,-155.87 278.53,-141.4 236.85,-131.45"/>
<polygon fill="#63b8ff" stroke="#63b8ff" points="237.49,-128 226.95,-129.08 235.86,-134.81 237.49,-128"/>
</a>
</g>
</g>
<!-- Node26&#45;&gt;Node5 -->
<g id="edge48_Node000026_Node000005" class="edge">
<title>Node26&#45;&gt;Node5</title>
<g id="a_edge48_Node000026_Node000005"><a xlink:title=" ">
<path fill="none" stroke="#63b8ff" d="M220.4,-109.98C252.31,-100.74 303.3,-85.98 337.69,-76.02"/>
<polygon fill="#63b8ff" stroke="#63b8ff" points="338.72,-79.36 347.35,-73.22 336.77,-72.64 338.72,-79.36"/>
</a>
</g>
</g>
<!-- Node26&#45;&gt;Node10 -->
<g id="edge50_Node000026_Node000010" class="edge">
<title>Node26&#45;&gt;Node10</title>
<g id="a_edge50_Node000026_Node000010"><a xlink:title=" ">
<path fill="none" stroke="#63b8ff" d="M178.99,-109.79C167.36,-101.16 149.4,-87.33 135,-74 118.69,-58.91 101.57,-40.1 90,-26.88"/>
<polygon fill="#63b8ff" stroke="#63b8ff" points="92.45,-24.37 83.26,-19.1 87.16,-28.95 92.45,-24.37"/>
</a>
</g>
</g>
<!-- Node26&#45;&gt;Node14 -->
<g id="edge49_Node000026_Node000014" class="edge">
<title>Node26&#45;&gt;Node14</title>
<g id="a_edge49_Node000026_Node000014"><a xlink:title=" ">
<path fill="none" stroke="#63b8ff" d="M207.39,-109.98C223.57,-101.57 248.57,-88.59 267.38,-78.81"/>
<polygon fill="#63b8ff" stroke="#63b8ff" points="269.05,-81.89 276.31,-74.17 265.83,-75.68 269.05,-81.89"/>
</a>
</g>
</g>
<!-- Node27 -->
<g id="Node000027" class="node">
<title>Node27</title>
<g id="a_Node000027"><a xlink:title=" ">
<polygon fill="#e0e0e0" stroke="#999999" points="237.5,-74 144.5,-74 144.5,-55 237.5,-55 237.5,-74"/>
<text text-anchor="middle" x="191" y="-62" font-family="Helvetica,sans-Serif" font-size="10.00">unordered_map</text>
</a>
</g>
</g>
<!-- Node26&#45;&gt;Node27 -->
<g id="edge51_Node000026_Node000027" class="edge">
<title>Node26&#45;&gt;Node27</title>
<g id="a_edge51_Node000026_Node000027"><a xlink:title=" ">
<path fill="none" stroke="#63b8ff" d="M191,-109.75C191,-102.8 191,-92.85 191,-84.13"/>
<polygon fill="#63b8ff" stroke="#63b8ff" points="194.5,-84.09 191,-74.09 187.5,-84.09 194.5,-84.09"/>
</a>
</g>
</g>
<!-- Node28&#45;&gt;Node2 -->
<g id="edge56_Node000028_Node000002" class="edge">
<title>Node28&#45;&gt;Node2</title>
<g id="a_edge56_Node000028_Node000002"><a xlink:title=" ">
<path fill="none" stroke="#63b8ff" d="M895.4,-329.98C865.39,-321.05 818.02,-306.94 784.68,-297.02"/>
<polygon fill="#63b8ff" stroke="#63b8ff" points="785.41,-293.58 774.82,-294.08 783.41,-300.29 785.41,-293.58"/>
</a>
</g>
</g>
<!-- Node28&#45;&gt;Node4 -->
<g id="edge54_Node000028_Node000004" class="edge">
<title>Node28&#45;&gt;Node4</title>
<g id="a_edge54_Node000028_Node000004"><a xlink:title=" ">
<path fill="none" stroke="#63b8ff" d="M936.5,-329.84C963.2,-311.36 1026.04,-267.86 1058.99,-245.05"/>
<polygon fill="#63b8ff" stroke="#63b8ff" points="1061.21,-247.77 1067.44,-239.2 1057.22,-242.01 1061.21,-247.77"/>
</a>
</g>
</g>
<!-- Node28&#45;&gt;Node24 -->
<g id="edge57_Node000028_Node000024" class="edge">
<title>Node28&#45;&gt;Node24</title>
<g id="a_edge57_Node000028_Node000024"><a xlink:title=" ">
<path fill="none" stroke="#63b8ff" d="M966.97,-329.98C1012.99,-318.29 1083.62,-292.33 1115,-239 1135.86,-203.54 1078.86,-187.64 1032.59,-180.67"/>
<polygon fill="#63b8ff" stroke="#63b8ff" points="1033,-177.2 1022.61,-179.28 1032.03,-184.13 1033,-177.2"/>
</a>
</g>
</g>
<!-- Node29 -->
<g id="Node000029" class="node">
<title>Node29</title>
<g id="a_Node000029"><a xlink:title=" ">
<polygon fill="#e0e0e0" stroke="#999999" points="964,-294 884,-294 884,-275 964,-275 964,-294"/>
<text text-anchor="middle" x="924" y="-282" font-family="Helvetica,sans-Serif" font-size="10.00">robin_hood.h</text>
</a>
</g>
</g>
<!-- Node28&#45;&gt;Node29 -->
<g id="edge55_Node000028_Node000029" class="edge">
<title>Node28&#45;&gt;Node29</title>
<g id="a_edge55_Node000028_Node000029"><a xlink:title=" ">
<path fill="none" stroke="#63b8ff" d="M924,-329.75C924,-322.8 924,-312.85 924,-304.13"/>
<polygon fill="#63b8ff" stroke="#63b8ff" points="927.5,-304.09 924,-294.09 920.5,-304.09 927.5,-304.09"/>
</a>
</g>
</g>
</g>
</svg>

<g id="navigator" transform="translate(0 0)" fill="#404254">
  <rect fill="#f2f5e9" fill-opacity="0.5" stroke="#606060" stroke-width=".5" x="0" y="0" width="60" height="60"/>
  <use id="zoomplus" xlink:href="#zoomPlus" x="17" y="9" onmousedown="handleZoom(evt,'in')"/>
  <use id="zoomminus" xlink:href="#zoomMin" x="42" y="9" onmousedown="handleZoom(evt,'out')"/>
  <use id="reset" xlink:href="#resetDef" x="30" y="36" onmousedown="handleReset()"/>
   <use id="arrowup" xlink:href="#arrowUp" x="0" y="0" onmousedown="handlePan(0,-1)"/>
  <use id="arrowright" xlink:href="#arrowRight" x="0" y="0" onmousedown="handlePan(1,0)"/>
  <use id="arrowdown" xlink:href="#arrowDown" x="0" y="0" onmousedown="handlePan(0,1)"/>
  <use id="arrowleft" xlink:href="#arrowLeft" x="0" y="0" onmousedown="handlePan(-1,0)"/>
</g>
<svg viewBox="0 0 15 15" width="100%" height="30px" preserveAspectRatio="xMaxYMin meet">
 <g id="arrow_out" transform="scale(0.3 0.3)">
  <a xlink:href="types_8cpp__incl_org.svg" target="_base">
   <rect id="button" ry="5" rx="5" y="6" x="6" height="38" width="38"
        fill="#f2f5e9" fill-opacity="0.5" stroke="#606060" stroke-width="1.0"/>
   <path id="arrow"
     d="M 11.500037,31.436501 C 11.940474,20.09759 22.043105,11.32322 32.158766,21.979434 L 37.068811,17.246167 C 37.068811,17.246167 37.088388,32 37.088388,32 L 22.160133,31.978069 C 22.160133,31.978069 26.997745,27.140456 26.997745,27.140456 C 18.528582,18.264221 13.291696,25.230495 11.500037,31.436501 z"
     style="fill:#404040;"/>
  </a>
 </g>
</svg>

<style type='text/css'>
<![CDATA[
[data-mouse-over-selected='false'] { opacity: 0.7; }
[data-mouse-over-selected='true']  { opacity: 1.0; }
]]>
</style>
<script type="application/ecmascript"><![CDATA[
document.addEventListener('DOMContentLoaded', (event) => {
  highlightEdges();
  highlightAdjacentNodes();
});
]]></script>
</svg>
