<?xml version="1.0" encoding="UTF-8" standalone="no"?>
<!DOCTYPE svg PUBLIC "-//W3C//DTD SVG 1.1//EN"
 "http://www.w3.org/Graphics/SVG/1.1/DTD/svg11.dtd">
<!-- Generated by graphviz version 2.43.0 (0)
 -->
<!-- Title: src/libuvgformat/include/uvgformat/uvgFramePayload.hpp Pages: 1 -->
<!--zoomable 203 -->

<svg id="main" version="1.1" xmlns="http://www.w3.org/2000/svg" xmlns:xlink="http://www.w3.org/1999/xlink" xml:space="preserve" onload="init(evt)">
<style type="text/css"><![CDATA[
.node, .edge {opacity: 0.7;}
.node.selected, .edge.selected {opacity: 1;}
.edge:hover path { stroke: red; }
.edge:hover polygon { stroke: red; fill: red; }
]]></style>

<defs>
  <circle id="rim" cx="0" cy="0" r="7"/>
  <circle id="rim2" cx="0" cy="0" r="3.5"/>
  <g id="zoomPlus">
    <use xlink:href="#rim" fill="#404040"><set attributeName="fill" to="#808080" begin="zoomplus.mouseover" end="zoomplus.mouseout"/></use>
    <path d="M-4,0h8M0,-4v8" fill="none" stroke="white" stroke-width="1.5" pointer-events="none"/>
  </g>
  <g id="zoomMin">
    <use xlink:href="#rim" fill="#404040"><set attributeName="fill" to="#808080" begin="zoomminus.mouseover" end="zoomminus.mouseout"/></use>
    <path d="M-4,0h8" fill="none" stroke="white" stroke-width="1.5" pointer-events="none"/>
  </g>
  <g id="arrowUp" transform="translate(30 24)">
    <use xlink:href="#rim"/>
    <path pointer-events="none" fill="none" stroke="white" stroke-width="1.5" d="M0,-3.0v7 M-2.5,-0.5L0,-3.0L2.5,-0.5"/>
  </g>
  <g id="arrowRight" transform="rotate(90) translate(36 -43)">
    <use xlink:href="#rim"/>
    <path pointer-events="none" fill="none" stroke="white" stroke-width="1.5" d="M0,-3.0v7 M-2.5,-0.5L0,-3.0L2.5,-0.5"/>
  </g>
  <g id="arrowDown" transform="rotate(180) translate(-30 -48)">
    <use xlink:href="#rim"/>
    <path pointer-events="none" fill="none" stroke="white" stroke-width="1.5" d="M0,-3.0v7 M-2.5,-0.5L0,-3.0L2.5,-0.5"/>
  </g>
  <g id="arrowLeft" transform="rotate(270) translate(-36 17)">
    <use xlink:href="#rim"/>
    <path pointer-events="none" fill="none" stroke="white" stroke-width="1.5" d="M0,-3.0v7 M-2.5,-0.5L0,-3.0L2.5,-0.5"/>
  </g>
  <g id="resetDef">
    <use xlink:href="#rim2" fill="#404040"><set attributeName="fill" to="#808080" begin="reset.mouseover" end="reset.mouseout"/></use>
  </g>
</defs>
<script type="application/ecmascript">
var viewWidth = 638;
var viewHeight = 203;
var sectionId = 'dynsection-0';
</script>
<script type="application/ecmascript" xlink:href="svg.min.js"/>
<svg id="graph" class="graph">
<g id="viewport">
<title>src/libuvgformat/include/uvgformat/uvgFramePayload.hpp</title>
<!-- Node1 -->
<g id="Node000001" class="node">
<title>Node1</title>
<g id="a_Node000001"><a xlink:title=" ">
<polygon fill="#999999" stroke="#666666" points="212.71,-195 30.71,-195 30.71,-165 212.71,-165 212.71,-195"/>
<text text-anchor="start" x="38.71" y="-183" font-family="Helvetica,sans-Serif" font-size="10.00">src/libuvgformat/include</text>
<text text-anchor="middle" x="121.71" y="-172" font-family="Helvetica,sans-Serif" font-size="10.00">/uvgformat/uvgFramePayload.hpp</text>
</a>
</g>
</g>
<!-- Node2 -->
<g id="Node000002" class="node">
<title>Node2</title>
<g id="a_Node000002"><a xlink:title=" ">
<polygon fill="#e0e0e0" stroke="#999999" points="65.71,-74 15.71,-74 15.71,-55 65.71,-55 65.71,-74"/>
<text text-anchor="middle" x="40.71" y="-62" font-family="Helvetica,sans-Serif" font-size="10.00">cstdint</text>
</a>
</g>
</g>
<!-- Node1&#45;&gt;Node2 -->
<g id="edge1_Node000001_Node000002" class="edge">
<title>Node1&#45;&gt;Node2</title>
<g id="a_edge1_Node000001_Node000002"><a xlink:title=" ">
<path fill="none" stroke="#63b8ff" d="M53.01,-164.98C33.83,-157.57 15.14,-146.25 3.71,-129 -6.83,-113.08 7.59,-94.08 21.4,-81.03"/>
<polygon fill="#63b8ff" stroke="#63b8ff" points="24.07,-83.35 29.26,-74.11 19.44,-78.09 24.07,-83.35"/>
</a>
</g>
</g>
<!-- Node3 -->
<g id="Node000003" class="node">
<title>Node3</title>
<g id="a_Node000003"><a xlink:title=" ">
<polygon fill="#e0e0e0" stroke="#999999" points="78.21,-129 13.21,-129 13.21,-110 78.21,-110 78.21,-129"/>
<text text-anchor="middle" x="45.71" y="-117" font-family="Helvetica,sans-Serif" font-size="10.00">stdexcept</text>
</a>
</g>
</g>
<!-- Node1&#45;&gt;Node3 -->
<g id="edge2_Node000001_Node000003" class="edge">
<title>Node1&#45;&gt;Node3</title>
<g id="a_edge2_Node000001_Node000003"><a xlink:title=" ">
<path fill="none" stroke="#63b8ff" d="M103.31,-164.84C91.83,-156 77.06,-144.63 65.35,-135.62"/>
<polygon fill="#63b8ff" stroke="#63b8ff" points="67.16,-132.59 57.1,-129.27 62.89,-138.14 67.16,-132.59"/>
</a>
</g>
</g>
<!-- Node4 -->
<g id="Node000004" class="node">
<title>Node4</title>
<g id="a_Node000004"><a xlink:title=" ">
<polygon fill="#e0e0e0" stroke="#999999" points="147.21,-129 96.21,-129 96.21,-110 147.21,-110 147.21,-129"/>
<text text-anchor="middle" x="121.71" y="-117" font-family="Helvetica,sans-Serif" font-size="10.00">variant</text>
</a>
</g>
</g>
<!-- Node1&#45;&gt;Node4 -->
<g id="edge3_Node000001_Node000004" class="edge">
<title>Node1&#45;&gt;Node4</title>
<g id="a_edge3_Node000001_Node000004"><a xlink:title=" ">
<path fill="none" stroke="#63b8ff" d="M121.71,-164.84C121.71,-157.21 121.71,-147.7 121.71,-139.45"/>
<polygon fill="#63b8ff" stroke="#63b8ff" points="125.21,-139.27 121.71,-129.27 118.21,-139.27 125.21,-139.27"/>
</a>
</g>
</g>
<!-- Node5 -->
<g id="Node000005" class="node">
<title>Node5</title>
<g id="a_Node000005"><a xlink:title=" ">
<polygon fill="#e0e0e0" stroke="#999999" points="212.21,-129 165.21,-129 165.21,-110 212.21,-110 212.21,-129"/>
<text text-anchor="middle" x="188.71" y="-117" font-family="Helvetica,sans-Serif" font-size="10.00">vector</text>
</a>
</g>
</g>
<!-- Node1&#45;&gt;Node5 -->
<g id="edge4_Node000001_Node000005" class="edge">
<title>Node1&#45;&gt;Node5</title>
<g id="a_edge4_Node000001_Node000005"><a xlink:title=" ">
<path fill="none" stroke="#63b8ff" d="M137.93,-164.84C147.95,-156.09 160.82,-144.85 171.09,-135.88"/>
<polygon fill="#63b8ff" stroke="#63b8ff" points="173.44,-138.48 178.67,-129.27 168.84,-133.21 173.44,-138.48"/>
</a>
</g>
</g>
<!-- Node6 -->
<g id="Node000006" class="node">
<title>Node6</title>
<g id="a_Node000006"><a xlink:href="utils_8hpp.html" target="_top" xlink:title=" ">
<polygon fill="white" stroke="#666666" points="331.21,-129 230.21,-129 230.21,-110 331.21,-110 331.21,-129"/>
<text text-anchor="middle" x="280.71" y="-117" font-family="Helvetica,sans-Serif" font-size="10.00">uvgutils/utils.hpp</text>
</a>
</g>
</g>
<!-- Node1&#45;&gt;Node6 -->
<g id="edge5_Node000001_Node000006" class="edge">
<title>Node1&#45;&gt;Node6</title>
<g id="a_edge5_Node000001_Node000006"><a xlink:title=" ">
<path fill="none" stroke="#63b8ff" d="M159.8,-164.99C186.56,-155.14 222.01,-142.1 247.6,-132.68"/>
<polygon fill="#63b8ff" stroke="#63b8ff" points="249.05,-135.88 257.23,-129.14 246.64,-129.31 249.05,-135.88"/>
</a>
</g>
</g>
<!-- Node6&#45;&gt;Node2 -->
<g id="edge8_Node000006_Node000002" class="edge">
<title>Node6&#45;&gt;Node2</title>
<g id="a_edge8_Node000006_Node000002"><a xlink:title=" ">
<path fill="none" stroke="#63b8ff" d="M242.15,-109.98C196.27,-99.85 120.32,-83.08 75.95,-73.28"/>
<polygon fill="#63b8ff" stroke="#63b8ff" points="76.44,-69.81 65.92,-71.07 74.93,-76.64 76.44,-69.81"/>
</a>
</g>
</g>
<!-- Node7 -->
<g id="Node000007" class="node">
<title>Node7</title>
<g id="a_Node000007"><a xlink:title=" ">
<polygon fill="#e0e0e0" stroke="#999999" points="155.71,-74 113.71,-74 113.71,-55 155.71,-55 155.71,-74"/>
<text text-anchor="middle" x="134.71" y="-62" font-family="Helvetica,sans-Serif" font-size="10.00">array</text>
</a>
</g>
</g>
<!-- Node6&#45;&gt;Node7 -->
<g id="edge6_Node000006_Node000007" class="edge">
<title>Node6&#45;&gt;Node7</title>
<g id="a_edge6_Node000006_Node000007"><a xlink:title=" ">
<path fill="none" stroke="#63b8ff" d="M257.25,-109.98C232.27,-100.92 192.63,-86.53 165.23,-76.58"/>
<polygon fill="#63b8ff" stroke="#63b8ff" points="166.34,-73.26 155.74,-73.13 163.95,-79.84 166.34,-73.26"/>
</a>
</g>
</g>
<!-- Node8 -->
<g id="Node000008" class="node">
<title>Node8</title>
<g id="a_Node000008"><a xlink:title=" ">
<polygon fill="#e0e0e0" stroke="#999999" points="227.21,-74 174.21,-74 174.21,-55 227.21,-55 227.21,-74"/>
<text text-anchor="middle" x="200.71" y="-62" font-family="Helvetica,sans-Serif" font-size="10.00">cstddef</text>
</a>
</g>
</g>
<!-- Node6&#45;&gt;Node8 -->
<g id="edge7_Node000006_Node000008" class="edge">
<title>Node6&#45;&gt;Node8</title>
<g id="a_edge7_Node000006_Node000008"><a xlink:title=" ">
<path fill="none" stroke="#63b8ff" d="M267.86,-109.98C255.57,-101.84 236.8,-89.41 222.23,-79.76"/>
<polygon fill="#63b8ff" stroke="#63b8ff" points="224.07,-76.78 213.8,-74.17 220.2,-82.61 224.07,-76.78"/>
</a>
</g>
</g>
<!-- Node9 -->
<g id="Node000009" class="node">
<title>Node9</title>
<g id="a_Node000009"><a xlink:title=" ">
<polygon fill="#e0e0e0" stroke="#999999" points="283.71,-19 227.71,-19 227.71,0 283.71,0 283.71,-19"/>
<text text-anchor="middle" x="255.71" y="-7" font-family="Helvetica,sans-Serif" font-size="10.00">iomanip</text>
</a>
</g>
</g>
<!-- Node6&#45;&gt;Node9 -->
<g id="edge9_Node000006_Node000009" class="edge">
<title>Node6&#45;&gt;Node9</title>
<g id="a_edge9_Node000006_Node000009"><a xlink:title=" ">
<path fill="none" stroke="#63b8ff" d="M278.67,-109.66C274.6,-92.09 265.42,-52.45 259.98,-28.95"/>
<polygon fill="#63b8ff" stroke="#63b8ff" points="263.38,-28.11 257.72,-19.16 256.56,-29.69 263.38,-28.11"/>
</a>
</g>
</g>
<!-- Node10 -->
<g id="Node000010" class="node">
<title>Node10</title>
<g id="a_Node000010"><a xlink:title=" ">
<polygon fill="#e0e0e0" stroke="#999999" points="327.71,-74 283.71,-74 283.71,-55 327.71,-55 327.71,-74"/>
<text text-anchor="middle" x="305.71" y="-62" font-family="Helvetica,sans-Serif" font-size="10.00">limits</text>
</a>
</g>
</g>
<!-- Node6&#45;&gt;Node10 -->
<g id="edge10_Node000006_Node000010" class="edge">
<title>Node6&#45;&gt;Node10</title>
<g id="a_edge10_Node000006_Node000010"><a xlink:title=" ">
<path fill="none" stroke="#63b8ff" d="M284.84,-109.75C288.22,-102.57 293.13,-92.18 297.33,-83.27"/>
<polygon fill="#63b8ff" stroke="#63b8ff" points="300.56,-84.63 301.66,-74.09 294.23,-81.64 300.56,-84.63"/>
</a>
</g>
</g>
<!-- Node11 -->
<g id="Node000011" class="node">
<title>Node11</title>
<g id="a_Node000011"><a xlink:title=" ">
<polygon fill="#e0e0e0" stroke="#999999" points="401.71,-74 345.71,-74 345.71,-55 401.71,-55 401.71,-74"/>
<text text-anchor="middle" x="373.71" y="-62" font-family="Helvetica,sans-Serif" font-size="10.00">sstream</text>
</a>
</g>
</g>
<!-- Node6&#45;&gt;Node11 -->
<g id="edge11_Node000006_Node000011" class="edge">
<title>Node6&#45;&gt;Node11</title>
<g id="a_edge11_Node000006_Node000011"><a xlink:title=" ">
<path fill="none" stroke="#63b8ff" d="M295.65,-109.98C310.21,-101.69 332.58,-88.94 349.64,-79.22"/>
<polygon fill="#63b8ff" stroke="#63b8ff" points="351.54,-82.16 358.5,-74.17 348.08,-76.08 351.54,-82.16"/>
</a>
</g>
</g>
<!-- Node12 -->
<g id="Node000012" class="node">
<title>Node12</title>
<g id="a_Node000012"><a xlink:href="log_8hpp.html" target="_top" xlink:title=" ">
<polygon fill="white" stroke="#666666" points="473.21,-74 420.21,-74 420.21,-55 473.21,-55 473.21,-74"/>
<text text-anchor="middle" x="446.71" y="-62" font-family="Helvetica,sans-Serif" font-size="10.00">log.hpp</text>
</a>
</g>
</g>
<!-- Node6&#45;&gt;Node12 -->
<g id="edge12_Node000006_Node000012" class="edge">
<title>Node6&#45;&gt;Node12</title>
<g id="a_edge12_Node000006_Node000012"><a xlink:title=" ">
<path fill="none" stroke="#63b8ff" d="M307.38,-109.98C335.33,-101.06 379.42,-86.98 410.51,-77.06"/>
<polygon fill="#63b8ff" stroke="#63b8ff" points="411.64,-80.37 420.11,-73.99 409.52,-73.7 411.64,-80.37"/>
</a>
</g>
</g>
<!-- Node12&#45;&gt;Node9 -->
<g id="edge15_Node000012_Node000009" class="edge">
<title>Node12&#45;&gt;Node9</title>
<g id="a_edge15_Node000012_Node000009"><a xlink:title=" ">
<path fill="none" stroke="#63b8ff" d="M420.15,-56.13C387.36,-47.03 331.34,-31.49 293.93,-21.11"/>
<polygon fill="#63b8ff" stroke="#63b8ff" points="294.48,-17.63 283.91,-18.32 292.61,-24.37 294.48,-17.63"/>
</a>
</g>
</g>
<!-- Node13 -->
<g id="Node000013" class="node">
<title>Node13</title>
<g id="a_Node000013"><a xlink:title=" ">
<polygon fill="#e0e0e0" stroke="#999999" points="351.71,-19 301.71,-19 301.71,0 351.71,0 351.71,-19"/>
<text text-anchor="middle" x="326.71" y="-7" font-family="Helvetica,sans-Serif" font-size="10.00">chrono</text>
</a>
</g>
</g>
<!-- Node12&#45;&gt;Node13 -->
<g id="edge13_Node000012_Node000013" class="edge">
<title>Node12&#45;&gt;Node13</title>
<g id="a_edge13_Node000012_Node000013"><a xlink:title=" ">
<path fill="none" stroke="#63b8ff" d="M427.43,-54.98C408.04,-46.42 377.9,-33.11 355.65,-23.28"/>
<polygon fill="#63b8ff" stroke="#63b8ff" points="356.9,-20.01 346.34,-19.17 354.08,-26.41 356.9,-20.01"/>
</a>
</g>
</g>
<!-- Node14 -->
<g id="Node000014" class="node">
<title>Node14</title>
<g id="a_Node000014"><a xlink:title=" ">
<polygon fill="#e0e0e0" stroke="#999999" points="423.21,-19 370.21,-19 370.21,0 423.21,0 423.21,-19"/>
<text text-anchor="middle" x="396.71" y="-7" font-family="Helvetica,sans-Serif" font-size="10.00">cstdarg</text>
</a>
</g>
</g>
<!-- Node12&#45;&gt;Node14 -->
<g id="edge14_Node000012_Node000014" class="edge">
<title>Node12&#45;&gt;Node14</title>
<g id="a_edge14_Node000012_Node000014"><a xlink:title=" ">
<path fill="none" stroke="#63b8ff" d="M438.45,-54.75C431.25,-47.11 420.6,-35.82 411.87,-26.56"/>
<polygon fill="#63b8ff" stroke="#63b8ff" points="414.22,-23.96 404.81,-19.09 409.13,-28.76 414.22,-23.96"/>
</a>
</g>
</g>
<!-- Node15 -->
<g id="Node000015" class="node">
<title>Node15</title>
<g id="a_Node000015"><a xlink:title=" ">
<polygon fill="#e0e0e0" stroke="#999999" points="501.71,-19 441.71,-19 441.71,0 501.71,0 501.71,-19"/>
<text text-anchor="middle" x="471.71" y="-7" font-family="Helvetica,sans-Serif" font-size="10.00">iostream</text>
</a>
</g>
</g>
<!-- Node12&#45;&gt;Node15 -->
<g id="edge16_Node000012_Node000015" class="edge">
<title>Node12&#45;&gt;Node15</title>
<g id="a_edge16_Node000012_Node000015"><a xlink:title=" ">
<path fill="none" stroke="#63b8ff" d="M450.84,-54.75C454.22,-47.57 459.13,-37.18 463.33,-28.27"/>
<polygon fill="#63b8ff" stroke="#63b8ff" points="466.56,-29.63 467.66,-19.09 460.23,-26.64 466.56,-29.63"/>
</a>
</g>
</g>
<!-- Node16 -->
<g id="Node000016" class="node">
<title>Node16</title>
<g id="a_Node000016"><a xlink:title=" ">
<polygon fill="#e0e0e0" stroke="#999999" points="567.71,-19 519.71,-19 519.71,0 567.71,0 567.71,-19"/>
<text text-anchor="middle" x="543.71" y="-7" font-family="Helvetica,sans-Serif" font-size="10.00">mutex</text>
</a>
</g>
</g>
<!-- Node12&#45;&gt;Node16 -->
<g id="edge17_Node000012_Node000016" class="edge">
<title>Node12&#45;&gt;Node16</title>
<g id="a_edge17_Node000012_Node000016"><a xlink:title=" ">
<path fill="none" stroke="#63b8ff" d="M462.3,-54.98C477.48,-46.69 500.81,-33.94 518.61,-24.22"/>
<polygon fill="#63b8ff" stroke="#63b8ff" points="520.75,-27.04 527.84,-19.17 517.39,-20.89 520.75,-27.04"/>
</a>
</g>
</g>
<!-- Node17 -->
<g id="Node000017" class="node">
<title>Node17</title>
<g id="a_Node000017"><a xlink:title=" ">
<polygon fill="#e0e0e0" stroke="#999999" points="629.71,-19 585.71,-19 585.71,0 629.71,0 629.71,-19"/>
<text text-anchor="middle" x="607.71" y="-7" font-family="Helvetica,sans-Serif" font-size="10.00">string</text>
</a>
</g>
</g>
<!-- Node12&#45;&gt;Node17 -->
<g id="edge18_Node000012_Node000017" class="edge">
<title>Node12&#45;&gt;Node17</title>
<g id="a_edge18_Node000012_Node000017"><a xlink:title=" ">
<path fill="none" stroke="#63b8ff" d="M472.58,-54.98C500.69,-45.73 545.63,-30.94 575.88,-20.98"/>
<polygon fill="#63b8ff" stroke="#63b8ff" points="577.13,-24.25 585.54,-17.8 574.94,-17.6 577.13,-24.25"/>
</a>
</g>
</g>
</g>
</svg>

<g id="navigator" transform="translate(0 0)" fill="#404254">
  <rect fill="#f2f5e9" fill-opacity="0.5" stroke="#606060" stroke-width=".5" x="0" y="0" width="60" height="60"/>
  <use id="zoomplus" xlink:href="#zoomPlus" x="17" y="9" onmousedown="handleZoom(evt,'in')"/>
  <use id="zoomminus" xlink:href="#zoomMin" x="42" y="9" onmousedown="handleZoom(evt,'out')"/>
  <use id="reset" xlink:href="#resetDef" x="30" y="36" onmousedown="handleReset()"/>
   <use id="arrowup" xlink:href="#arrowUp" x="0" y="0" onmousedown="handlePan(0,-1)"/>
  <use id="arrowright" xlink:href="#arrowRight" x="0" y="0" onmousedown="handlePan(1,0)"/>
  <use id="arrowdown" xlink:href="#arrowDown" x="0" y="0" onmousedown="handlePan(0,1)"/>
  <use id="arrowleft" xlink:href="#arrowLeft" x="0" y="0" onmousedown="handlePan(-1,0)"/>
</g>
<svg viewBox="0 0 15 15" width="100%" height="30px" preserveAspectRatio="xMaxYMin meet">
 <g id="arrow_out" transform="scale(0.3 0.3)">
  <a xlink:href="uvgFramePayload_8hpp__incl_org.svg" target="_base">
   <rect id="button" ry="5" rx="5" y="6" x="6" height="38" width="38"
        fill="#f2f5e9" fill-opacity="0.5" stroke="#606060" stroke-width="1.0"/>
   <path id="arrow"
     d="M 11.500037,31.436501 C 11.940474,20.09759 22.043105,11.32322 32.158766,21.979434 L 37.068811,17.246167 C 37.068811,17.246167 37.088388,32 37.088388,32 L 22.160133,31.978069 C 22.160133,31.978069 26.997745,27.140456 26.997745,27.140456 C 18.528582,18.264221 13.291696,25.230495 11.500037,31.436501 z"
     style="fill:#404040;"/>
  </a>
 </g>
</svg>

<style type='text/css'>
<![CDATA[
[data-mouse-over-selected='false'] { opacity: 0.7; }
[data-mouse-over-selected='true']  { opacity: 1.0; }
]]>
</style>
<script type="application/ecmascript"><![CDATA[
document.addEventListener('DOMContentLoaded', (event) => {
  highlightEdges();
  highlightAdjacentNodes();
});
]]></script>
</svg>
