<?xml version="1.0" encoding="UTF-8" standalone="no"?>
<!DOCTYPE svg PUBLIC "-//W3C//DTD SVG 1.1//EN"
 "http://www.w3.org/Graphics/SVG/1.1/DTD/svg11.dtd">
<!-- Generated by graphviz version 2.43.0 (0)
 -->
<!-- Title: src/libuvgvpccenc/bitstreamGeneration/video_sub_bitstream.hpp Pages: 1 -->
<svg width="647pt" height="258pt"
 viewBox="0.00 0.00 646.59 258.00" xmlns="http://www.w3.org/2000/svg" xmlns:xlink="http://www.w3.org/1999/xlink">
<g id="graph0" class="graph" transform="scale(1 1) rotate(0) translate(4 254)">
<title>src/libuvgvpccenc/bitstreamGeneration/video_sub_bitstream.hpp</title>
<!-- Node1 -->
<g id="Node000001" class="node">
<title>Node1</title>
<g id="a_Node000001"><a xlink:title=" ">
<polygon fill="#999999" stroke="#666666" points="550.09,-250 353.09,-250 353.09,-220 550.09,-220 550.09,-250"/>
<text text-anchor="start" x="361.09" y="-238" font-family="Helvetica,sans-Serif" font-size="10.00">src/libuvgvpccenc/bitstream</text>
<text text-anchor="middle" x="451.59" y="-227" font-family="Helvetica,sans-Serif" font-size="10.00">Generation/video_sub_bitstream.hpp</text>
</a>
</g>
</g>
<!-- Node2 -->
<g id="Node000002" class="node">
<title>Node2</title>
<g id="a_Node000002"><a xlink:title=" ">
<polygon fill="#e0e0e0" stroke="#999999" points="248.59,-19 198.59,-19 198.59,0 248.59,0 248.59,-19"/>
<text text-anchor="middle" x="223.59" y="-7" font-family="Helvetica,sans-Serif" font-size="10.00">cstdint</text>
</a>
</g>
</g>
<!-- Node1&#45;&gt;Node2 -->
<g id="edge1_Node000001_Node000002" class="edge">
<title>Node1&#45;&gt;Node2</title>
<g id="a_edge1_Node000001_Node000002"><a xlink:title=" ">
<path fill="none" stroke="#63b8ff" d="M352.83,-224.54C236.12,-211.09 52.42,-181.96 10.59,-129 -41.41,-63.17 114.87,-28.23 188.02,-15.82"/>
<polygon fill="#63b8ff" stroke="#63b8ff" points="188.88,-19.23 198.18,-14.15 187.74,-12.32 188.88,-19.23"/>
</a>
</g>
</g>
<!-- Node3 -->
<g id="Node000003" class="node">
<title>Node3</title>
<g id="a_Node000003"><a xlink:title=" ">
<polygon fill="#e0e0e0" stroke="#999999" points="638.59,-184 594.59,-184 594.59,-165 638.59,-165 638.59,-184"/>
<text text-anchor="middle" x="616.59" y="-172" font-family="Helvetica,sans-Serif" font-size="10.00">string</text>
</a>
</g>
</g>
<!-- Node1&#45;&gt;Node3 -->
<g id="edge2_Node000001_Node000003" class="edge">
<title>Node1&#45;&gt;Node3</title>
<g id="a_edge2_Node000001_Node000003"><a xlink:title=" ">
<path fill="none" stroke="#63b8ff" d="M491.11,-219.99C519.68,-209.86 557.8,-196.34 584.5,-186.88"/>
<polygon fill="#63b8ff" stroke="#63b8ff" points="585.87,-190.1 594.13,-183.46 583.53,-183.51 585.87,-190.1"/>
</a>
</g>
</g>
<!-- Node4 -->
<g id="Node000004" class="node">
<title>Node4</title>
<g id="a_Node000004"><a xlink:title=" ">
<polygon fill="#e0e0e0" stroke="#999999" points="528.09,-74 481.09,-74 481.09,-55 528.09,-55 528.09,-74"/>
<text text-anchor="middle" x="504.59" y="-62" font-family="Helvetica,sans-Serif" font-size="10.00">vector</text>
</a>
</g>
</g>
<!-- Node1&#45;&gt;Node4 -->
<g id="edge3_Node000001_Node000004" class="edge">
<title>Node1&#45;&gt;Node4</title>
<g id="a_edge3_Node000001_Node000004"><a xlink:title=" ">
<path fill="none" stroke="#63b8ff" d="M466.4,-219.68C484.67,-200.88 514.76,-165.91 526.59,-129 531.64,-113.24 524.34,-95.45 516.82,-82.72"/>
<polygon fill="#63b8ff" stroke="#63b8ff" points="519.61,-80.58 511.23,-74.08 513.73,-84.38 519.61,-80.58"/>
</a>
</g>
</g>
<!-- Node5 -->
<g id="Node000005" class="node">
<title>Node5</title>
<g id="a_Node000005"><a xlink:href="v3cbitstream_8hpp.html" target="_top" xlink:title=" ">
<polygon fill="white" stroke="#666666" points="358.59,-184 256.59,-184 256.59,-165 358.59,-165 358.59,-184"/>
<text text-anchor="middle" x="307.59" y="-172" font-family="Helvetica,sans-Serif" font-size="10.00">v3cbitstream.hpp</text>
</a>
</g>
</g>
<!-- Node1&#45;&gt;Node5 -->
<g id="edge4_Node000001_Node000005" class="edge">
<title>Node1&#45;&gt;Node5</title>
<g id="a_edge4_Node000001_Node000005"><a xlink:title=" ">
<path fill="none" stroke="#63b8ff" d="M417.09,-219.99C393.07,-210.23 361.31,-197.33 338.19,-187.93"/>
<polygon fill="#63b8ff" stroke="#63b8ff" points="339.43,-184.66 328.85,-184.14 336.8,-191.15 339.43,-184.66"/>
</a>
</g>
</g>
<!-- Node5&#45;&gt;Node2 -->
<g id="edge6_Node000005_Node000002" class="edge">
<title>Node5&#45;&gt;Node2</title>
<g id="a_edge6_Node000005_Node000002"><a xlink:title=" ">
<path fill="none" stroke="#63b8ff" d="M258.03,-164.97C230.42,-158.45 196.5,-147.36 170.59,-129 145.49,-111.22 138.44,-103.14 128.59,-74 125.88,-66 124.06,-62.13 128.59,-55 141.75,-34.3 167.35,-23.07 188.66,-17.06"/>
<polygon fill="#63b8ff" stroke="#63b8ff" points="189.57,-20.45 198.4,-14.59 187.85,-13.66 189.57,-20.45"/>
</a>
</g>
</g>
<!-- Node5&#45;&gt;Node4 -->
<g id="edge11_Node000005_Node000004" class="edge">
<title>Node5&#45;&gt;Node4</title>
<g id="a_edge11_Node000005_Node000004"><a xlink:title=" ">
<path fill="none" stroke="#63b8ff" d="M358.98,-169.38C412.48,-163.9 491.03,-152.09 509.59,-129 519.63,-116.5 516.69,-97.78 512.25,-83.9"/>
<polygon fill="#63b8ff" stroke="#63b8ff" points="515.5,-82.59 508.76,-74.42 508.93,-85.01 515.5,-82.59"/>
</a>
</g>
</g>
<!-- Node6 -->
<g id="Node000006" class="node">
<title>Node6</title>
<g id="a_Node000006"><a xlink:title=" ">
<polygon fill="#e0e0e0" stroke="#999999" points="401.09,-74 348.09,-74 348.09,-55 401.09,-55 401.09,-74"/>
<text text-anchor="middle" x="374.59" y="-62" font-family="Helvetica,sans-Serif" font-size="10.00">cstddef</text>
</a>
</g>
</g>
<!-- Node5&#45;&gt;Node6 -->
<g id="edge5_Node000005_Node000006" class="edge">
<title>Node5&#45;&gt;Node6</title>
<g id="a_edge5_Node000005_Node000006"><a xlink:title=" ">
<path fill="none" stroke="#63b8ff" d="M302.81,-164.63C296.57,-151.72 287.55,-127.4 297.59,-110 306.47,-94.61 322.93,-84.06 338.36,-77.11"/>
<polygon fill="#63b8ff" stroke="#63b8ff" points="339.85,-80.29 347.76,-73.24 337.18,-73.81 339.85,-80.29"/>
</a>
</g>
</g>
<!-- Node7 -->
<g id="Node000007" class="node">
<title>Node7</title>
<g id="a_Node000007"><a xlink:title=" ">
<polygon fill="#e0e0e0" stroke="#999999" points="195.59,-74 137.59,-74 137.59,-55 195.59,-55 195.59,-74"/>
<text text-anchor="middle" x="166.59" y="-62" font-family="Helvetica,sans-Serif" font-size="10.00">memory</text>
</a>
</g>
</g>
<!-- Node5&#45;&gt;Node7 -->
<g id="edge7_Node000005_Node000007" class="edge">
<title>Node5&#45;&gt;Node7</title>
<g id="a_edge7_Node000005_Node000007"><a xlink:title=" ">
<path fill="none" stroke="#63b8ff" d="M256.28,-165.76C231.88,-159.6 204.07,-148.6 185.59,-129 174.13,-116.84 169.55,-98.05 167.74,-84.06"/>
<polygon fill="#63b8ff" stroke="#63b8ff" points="171.23,-83.71 166.8,-74.09 164.26,-84.37 171.23,-83.71"/>
</a>
</g>
</g>
<!-- Node8 -->
<g id="Node000008" class="node">
<title>Node8</title>
<g id="a_Node000008"><a xlink:title=" ">
<polygon fill="#e0e0e0" stroke="#999999" points="434.59,-129 386.59,-129 386.59,-110 434.59,-110 434.59,-129"/>
<text text-anchor="middle" x="410.59" y="-117" font-family="Helvetica,sans-Serif" font-size="10.00">mutex</text>
</a>
</g>
</g>
<!-- Node5&#45;&gt;Node8 -->
<g id="edge8_Node000005_Node000008" class="edge">
<title>Node5&#45;&gt;Node8</title>
<g id="a_edge8_Node000005_Node000008"><a xlink:title=" ">
<path fill="none" stroke="#63b8ff" d="M324.13,-164.98C340.48,-156.57 365.72,-143.59 384.72,-133.81"/>
<polygon fill="#63b8ff" stroke="#63b8ff" points="386.45,-136.86 393.74,-129.17 383.24,-130.63 386.45,-136.86"/>
</a>
</g>
</g>
<!-- Node9 -->
<g id="Node000009" class="node">
<title>Node9</title>
<g id="a_Node000009"><a xlink:title=" ">
<polygon fill="#e0e0e0" stroke="#999999" points="500.09,-129 453.09,-129 453.09,-110 500.09,-110 500.09,-129"/>
<text text-anchor="middle" x="476.59" y="-117" font-family="Helvetica,sans-Serif" font-size="10.00">queue</text>
</a>
</g>
</g>
<!-- Node5&#45;&gt;Node9 -->
<g id="edge9_Node000005_Node000009" class="edge">
<title>Node5&#45;&gt;Node9</title>
<g id="a_edge9_Node000005_Node000009"><a xlink:title=" ">
<path fill="none" stroke="#63b8ff" d="M334.74,-164.98C364.29,-155.72 411.56,-140.89 443.32,-130.93"/>
<polygon fill="#63b8ff" stroke="#63b8ff" points="444.55,-134.22 453.04,-127.88 442.46,-127.54 444.55,-134.22"/>
</a>
</g>
</g>
<!-- Node10 -->
<g id="Node000010" class="node">
<title>Node10</title>
<g id="a_Node000010"><a xlink:title=" ">
<polygon fill="#e0e0e0" stroke="#999999" points="91.09,-129 20.09,-129 20.09,-110 91.09,-110 91.09,-129"/>
<text text-anchor="middle" x="55.59" y="-117" font-family="Helvetica,sans-Serif" font-size="10.00">semaphore</text>
</a>
</g>
</g>
<!-- Node5&#45;&gt;Node10 -->
<g id="edge10_Node000005_Node000010" class="edge">
<title>Node5&#45;&gt;Node10</title>
<g id="a_edge10_Node000005_Node000010"><a xlink:title=" ">
<path fill="none" stroke="#63b8ff" d="M267.1,-164.98C221.73,-155.44 148.36,-140.01 101.06,-130.06"/>
<polygon fill="#63b8ff" stroke="#63b8ff" points="101.59,-126.6 91.09,-127.97 100.15,-133.45 101.59,-126.6"/>
</a>
</g>
</g>
<!-- Node11 -->
<g id="Node000011" class="node">
<title>Node11</title>
<g id="a_Node000011"><a xlink:href="atlas_8hpp.html" target="_top" xlink:title=" ">
<polygon fill="white" stroke="#666666" points="368.59,-129 306.59,-129 306.59,-110 368.59,-110 368.59,-129"/>
<text text-anchor="middle" x="337.59" y="-117" font-family="Helvetica,sans-Serif" font-size="10.00">atlas.hpp</text>
</a>
</g>
</g>
<!-- Node5&#45;&gt;Node11 -->
<g id="edge12_Node000005_Node000011" class="edge">
<title>Node5&#45;&gt;Node11</title>
<g id="a_edge12_Node000005_Node000011"><a xlink:title=" ">
<path fill="none" stroke="#63b8ff" d="M312.54,-164.75C316.65,-157.49 322.61,-146.95 327.69,-137.98"/>
<polygon fill="#63b8ff" stroke="#63b8ff" points="330.84,-139.52 332.72,-129.09 324.75,-136.07 330.84,-139.52"/>
</a>
</g>
</g>
<!-- Node13 -->
<g id="Node000013" class="node">
<title>Node13</title>
<g id="a_Node000013"><a xlink:href="libuvgv3cbitstream_2include_2uvgv3cbitstream_2vps_8hpp.html" target="_top" xlink:title=" ">
<polygon fill="white" stroke="#666666" points="250.09,-129 195.09,-129 195.09,-110 250.09,-110 250.09,-129"/>
<text text-anchor="middle" x="222.59" y="-117" font-family="Helvetica,sans-Serif" font-size="10.00">vps.hpp</text>
</a>
</g>
</g>
<!-- Node5&#45;&gt;Node13 -->
<g id="edge19_Node000005_Node000013" class="edge">
<title>Node5&#45;&gt;Node13</title>
<g id="a_edge19_Node000005_Node000013"><a xlink:title=" ">
<path fill="none" stroke="#63b8ff" d="M293.93,-164.98C280.75,-156.77 260.56,-144.18 245.02,-134.49"/>
<polygon fill="#63b8ff" stroke="#63b8ff" points="246.83,-131.49 236.49,-129.17 243.13,-137.43 246.83,-131.49"/>
</a>
</g>
</g>
<!-- Node11&#45;&gt;Node2 -->
<g id="edge14_Node000011_Node000002" class="edge">
<title>Node11&#45;&gt;Node2</title>
<g id="a_edge14_Node000011_Node000002"><a xlink:title=" ">
<path fill="none" stroke="#63b8ff" d="M361.31,-109.99C388.93,-98.79 428.6,-77.8 410.59,-55 392.04,-31.52 307.7,-19.1 258.86,-13.76"/>
<polygon fill="#63b8ff" stroke="#63b8ff" points="259.03,-10.26 248.72,-12.7 258.3,-17.23 259.03,-10.26"/>
</a>
</g>
</g>
<!-- Node11&#45;&gt;Node4 -->
<g id="edge16_Node000011_Node000004" class="edge">
<title>Node11&#45;&gt;Node4</title>
<g id="a_edge16_Node000011_Node000004"><a xlink:title=" ">
<path fill="none" stroke="#63b8ff" d="M364.42,-109.98C393.54,-100.74 440.06,-85.98 471.45,-76.02"/>
<polygon fill="#63b8ff" stroke="#63b8ff" points="472.59,-79.33 481.06,-72.97 470.47,-72.66 472.59,-79.33"/>
</a>
</g>
</g>
<!-- Node11&#45;&gt;Node6 -->
<g id="edge13_Node000011_Node000006" class="edge">
<title>Node11&#45;&gt;Node6</title>
<g id="a_edge13_Node000011_Node000006"><a xlink:title=" ">
<path fill="none" stroke="#63b8ff" d="M343.7,-109.75C348.87,-102.34 356.43,-91.5 362.78,-82.41"/>
<polygon fill="#63b8ff" stroke="#63b8ff" points="365.74,-84.29 368.59,-74.09 360,-80.29 365.74,-84.29"/>
</a>
</g>
</g>
<!-- Node11&#45;&gt;Node7 -->
<g id="edge15_Node000011_Node000007" class="edge">
<title>Node11&#45;&gt;Node7</title>
<g id="a_edge15_Node000011_Node000007"><a xlink:title=" ">
<path fill="none" stroke="#63b8ff" d="M310.11,-109.98C281.4,-101.09 236.17,-87.07 204.16,-77.15"/>
<polygon fill="#63b8ff" stroke="#63b8ff" points="204.86,-73.7 194.28,-74.08 202.79,-80.39 204.86,-73.7"/>
</a>
</g>
</g>
<!-- Node12 -->
<g id="Node000012" class="node">
<title>Node12</title>
<g id="a_Node000012"><a xlink:href="const__defs_8h.html" target="_top" xlink:title=" ">
<polygon fill="white" stroke="#666666" points="329.59,-74 251.59,-74 251.59,-55 329.59,-55 329.59,-74"/>
<text text-anchor="middle" x="290.59" y="-62" font-family="Helvetica,sans-Serif" font-size="10.00">const_defs.h</text>
</a>
</g>
</g>
<!-- Node11&#45;&gt;Node12 -->
<g id="edge17_Node000011_Node000012" class="edge">
<title>Node11&#45;&gt;Node12</title>
<g id="a_edge17_Node000011_Node000012"><a xlink:title=" ">
<path fill="none" stroke="#63b8ff" d="M329.82,-109.75C323.12,-102.18 313.24,-91.05 305.08,-81.84"/>
<polygon fill="#63b8ff" stroke="#63b8ff" points="307.46,-79.25 298.2,-74.09 302.22,-83.89 307.46,-79.25"/>
</a>
</g>
</g>
<!-- Node12&#45;&gt;Node2 -->
<g id="edge18_Node000012_Node000002" class="edge">
<title>Node12&#45;&gt;Node2</title>
<g id="a_edge18_Node000012_Node000002"><a xlink:title=" ">
<path fill="none" stroke="#63b8ff" d="M279.82,-54.98C269.82,-47.07 254.7,-35.11 242.66,-25.58"/>
<polygon fill="#63b8ff" stroke="#63b8ff" points="244.56,-22.63 234.55,-19.17 240.22,-28.12 244.56,-22.63"/>
</a>
</g>
</g>
<!-- Node13&#45;&gt;Node2 -->
<g id="edge21_Node000013_Node000002" class="edge">
<title>Node13&#45;&gt;Node2</title>
<g id="a_edge21_Node000013_Node000002"><a xlink:title=" ">
<path fill="none" stroke="#63b8ff" d="M222.67,-109.66C222.83,-92.17 223.19,-52.8 223.41,-29.27"/>
<polygon fill="#63b8ff" stroke="#63b8ff" points="226.91,-29.19 223.51,-19.16 219.91,-29.13 226.91,-29.19"/>
</a>
</g>
</g>
<!-- Node13&#45;&gt;Node4 -->
<g id="edge23_Node000013_Node000004" class="edge">
<title>Node13&#45;&gt;Node4</title>
<g id="a_edge23_Node000013_Node000004"><a xlink:title=" ">
<path fill="none" stroke="#63b8ff" d="M250.14,-113.32C302.2,-103.54 414.82,-82.37 471.12,-71.79"/>
<polygon fill="#63b8ff" stroke="#63b8ff" points="471.77,-75.23 480.96,-69.94 470.48,-68.35 471.77,-75.23"/>
</a>
</g>
</g>
<!-- Node13&#45;&gt;Node6 -->
<g id="edge20_Node000013_Node000006" class="edge">
<title>Node13&#45;&gt;Node6</title>
<g id="a_edge20_Node000013_Node000006"><a xlink:title=" ">
<path fill="none" stroke="#63b8ff" d="M247.01,-109.98C272.31,-101.16 312.04,-87.31 340.44,-77.41"/>
<polygon fill="#63b8ff" stroke="#63b8ff" points="341.68,-80.68 349.97,-74.08 339.38,-74.07 341.68,-80.68"/>
</a>
</g>
</g>
<!-- Node13&#45;&gt;Node7 -->
<g id="edge22_Node000013_Node000007" class="edge">
<title>Node13&#45;&gt;Node7</title>
<g id="a_edge22_Node000013_Node000007"><a xlink:title=" ">
<path fill="none" stroke="#63b8ff" d="M213.59,-109.98C205.39,-102.23 193.08,-90.58 183.11,-81.14"/>
<polygon fill="#63b8ff" stroke="#63b8ff" points="185.42,-78.5 175.75,-74.17 180.6,-83.59 185.42,-78.5"/>
</a>
</g>
</g>
<!-- Node13&#45;&gt;Node12 -->
<g id="edge24_Node000013_Node000012" class="edge">
<title>Node13&#45;&gt;Node12</title>
<g id="a_edge24_Node000013_Node000012"><a xlink:title=" ">
<path fill="none" stroke="#63b8ff" d="M233.51,-109.98C243.66,-102.07 259.01,-90.11 271.23,-80.58"/>
<polygon fill="#63b8ff" stroke="#63b8ff" points="273.73,-83.08 279.46,-74.17 269.42,-77.56 273.73,-83.08"/>
</a>
</g>
</g>
</g>
</svg>
